<svg width="201" height="201" viewBox="0 0 201 201" fill="none" xmlns="http://www.w3.org/2000/svg">
<path d="M165.46 133.047H176.052V128.571H165.46V133.047Z" fill="#F0F7FF"/>
<path d="M171.372 138.696L176.712 138.584L179.344 138.54C180.22 138.52 181.092 138.54 181.964 138.516L181.784 138.696V134.22L181.984 134.42L176.688 134.396C174.924 134.396 173.156 134.348 171.392 134.328L171.5 134.22C171.5 134.952 171.468 135.688 171.448 136.432L171.372 138.696ZM171.372 138.696L171.3 136.5C171.28 135.756 171.252 135 171.248 134.24V134.1H171.36C173.124 134.076 174.892 134.036 176.656 134.032L181.952 134.008H182.152V134.208L182.128 138.684V138.864H181.952C181.06 138.864 180.164 138.864 179.272 138.844L176.608 138.8L171.372 138.696Z" fill="#F0F7FF"/>
<path d="M93.356 94.7311L98.7 94.6191L101.328 94.5751C102.204 94.5551 103.076 94.5751 103.948 94.5551L103.768 94.7311L103.748 90.2551L103.948 90.4551L98.6521 90.4311C96.8881 90.4311 95.12 90.3871 93.356 90.3631L93.4641 90.2551C93.4641 90.9871 93.432 91.7231 93.412 92.4711L93.356 94.7311ZM93.356 94.7311L93.3 92.4991C93.28 91.7551 93.256 90.9991 93.248 90.2391V90.1311H93.36C95.124 90.1111 96.892 90.0671 98.656 90.0631L103.952 90.0391H104.152V90.2391L104.132 94.7151V94.8991H103.956C103.064 94.8991 102.168 94.8991 101.28 94.8751L98.612 94.8311L93.356 94.7311Z" fill="#F0F7FF"/>
<path d="M99.264 100.375H109.856V95.899H99.264V100.375Z" fill="#F0F7FF"/>
<path d="M87.356 100.371L92.7 100.259L95.332 100.215C96.208 100.195 97.076 100.215 97.948 100.195L97.772 100.371L97.748 95.8953L97.948 96.0953L92.6521 96.0713C90.8881 96.0713 89.124 96.0273 87.356 96.0033L87.468 95.8953C87.468 96.6273 87.432 97.3633 87.416 98.1113L87.356 100.371ZM87.356 100.371L87.3 98.1553C87.3 97.4113 87.256 96.6553 87.248 95.8953V95.7873H87.356C89.124 95.7873 90.8881 95.7233 92.6521 95.7193L97.948 95.6953H98.1521V95.8953L98.132 100.371V100.551H97.9521C97.0601 100.551 96.1641 100.551 95.276 100.527L92.612 100.483L87.356 100.371Z" fill="#F0F7FF"/>
<path d="M109.664 43.6797H120.256V39.2037H109.664V43.6797Z" fill="#F0F7FF"/>
<path d="M19.0362 138.696L24.3802 138.584L27.0122 138.54C27.8842 138.52 28.7562 138.54 29.6282 138.516L29.4522 138.696L29.4282 134.22L29.6282 134.42L24.3322 134.396C22.5682 134.396 20.8002 134.348 19.0362 134.328L19.1442 134.22C19.1442 134.952 19.1122 135.688 19.0922 136.432L19.0362 138.696ZM19.0362 138.696L18.9802 136.5C18.9602 135.756 18.9362 135 18.9282 134.24V134.1H19.0362C20.8002 134.076 22.5682 134.036 24.3322 134.032L29.6282 134.008H29.8282V134.208V138.684V138.864H29.6482C28.7562 138.864 27.8602 138.864 26.9722 138.844L24.3082 138.8L19.0362 138.696Z" fill="#F0F7FF"/>
<path d="M24.9441 25.3791L30.2881 25.2671L32.9201 25.2231C33.7961 25.2031 34.6641 25.2231 35.5361 25.1991L35.3601 25.3791L35.3361 20.8991L35.5361 21.0991L30.2401 21.0751C28.4761 21.0751 26.7121 21.0271 24.9441 21.0071L25.0561 20.8991C25.0561 21.6311 25.0201 22.3671 25.0001 23.1151L24.9441 25.3791ZM24.9441 25.3791L24.9001 23.1631C24.9001 22.4191 24.8561 21.6631 24.8481 20.9031V20.7951H24.9561C26.7241 20.7751 28.4881 20.7311 30.2521 20.7271L35.5481 20.7031H35.7521V20.8991L35.7001 25.3791V25.5591H35.5201C34.6281 25.5591 33.7321 25.5591 32.8441 25.5351L30.1801 25.4911L24.9441 25.3791Z" fill="#F0F7FF"/>
<path d="M19.0359 31.0234H29.6279V26.5474H19.0359V31.0234Z" fill="#F0F7FF"/>
<path d="M171.372 25.3791L176.712 25.2671L179.344 25.2231C180.22 25.2031 181.092 25.2231 181.964 25.1991L181.784 25.3791V20.9031L181.984 21.1031L176.688 21.0791C174.924 21.0791 173.156 21.0311 171.392 21.0111L171.5 20.9031C171.5 21.6351 171.468 22.3711 171.448 23.1191L171.372 25.3791ZM171.372 25.3791L171.3 23.1631C171.28 22.4191 171.252 21.6631 171.248 20.9031V20.7951H171.36C173.124 20.7751 174.892 20.7311 176.656 20.7271L181.952 20.7031H182.152V20.8991L182.14 25.3791V25.5591H181.964C181.072 25.5591 180.176 25.5591 179.284 25.5351L176.62 25.4911L171.372 25.3791Z" fill="#F0F7FF"/>
<path d="M68.2082 153.203H39.4282V185.071H68.2082V153.203Z" fill="#F0F7FF"/>
<path d="M24.5721 185.078H39.4321L39.4321 153.206H24.5721L24.5721 185.078Z" fill="#8FA8B7"/>
<path d="M25.5918 182.894C26.6958 180.628 27.7865 178.361 28.8638 176.094L32.0998 169.202L35.2998 162.318C36.3665 160.02 37.4118 157.713 38.4358 155.398C37.3318 157.665 36.2411 159.938 35.1638 162.218L31.9398 169.074L28.7398 175.958C27.6758 178.26 26.6265 180.572 25.5918 182.894Z" fill="#F0F7FF"/>
<path d="M25.5918 155.398C26.6265 157.716 27.6718 160.022 28.7278 162.318L31.9278 169.202L35.1518 176.058C36.2318 178.338 37.3225 180.605 38.4238 182.858C37.3891 180.544 36.3438 178.237 35.2878 175.938L32.0878 169.054L28.8638 162.198C27.7838 159.932 26.6931 157.665 25.5918 155.398Z" fill="#F0F7FF"/>
<path d="M68.2082 105.07H39.4282V134.742H68.2082V105.07Z" fill="#F0F7FF"/>
<path d="M24.5721 134.75H39.4321L39.4321 105.074H24.5721L24.5721 134.75Z" fill="#8FA8B7"/>
<path d="M51.376 111.958H51.988H52.444L52.704 111.426L53.072 111.958L53.568 110.866L54.04 111.958H55.388H56L56.224 111.23L56.432 111.958H56.832V105.07H51.376V111.958Z" fill="#8FA8B7"/>
<path d="M25.5918 132.854C26.6958 130.747 27.7865 128.627 28.8638 126.494L32.0878 120.094L35.2878 113.694C36.3545 111.561 37.3998 109.413 38.4238 107.25C37.3198 109.362 36.2291 111.479 35.1518 113.602L31.9278 119.982L28.7278 126.382C27.6718 128.539 26.6265 130.697 25.5918 132.854Z" fill="#F0F7FF"/>
<path d="M25.5918 107.266C26.6265 109.418 27.6718 111.56 28.7278 113.694L31.9278 120.094L35.1518 126.494C36.2318 128.627 37.3225 130.744 38.4238 132.846C37.3891 130.691 36.3438 128.543 35.2878 126.402L32.0878 120.002L28.8638 113.622C27.7838 111.496 26.6931 109.378 25.5918 107.266Z" fill="#F0F7FF"/>
<path d="M41.324 132.906H44.52V129.71H41.324V132.906Z" fill="#E3E9ED"/>
<path d="M66.2922 134.75H37.5122V153.206H66.2922V134.75Z" fill="#8FA8B7"/>
<path d="M22.6522 153.203H37.5122V134.747H22.6522V153.203Z" fill="#E0F0FF"/>
<path d="M49.46 141.638H50.068H50.528L50.788 141.106L51.156 141.638L51.652 140.546L52.124 141.638H53.468H54.084L54.304 140.91L54.516 141.638H54.916V134.75H49.46V141.638Z" fill="#E3E9ED"/>
<path d="M23.6763 152.1C24.7776 150.767 25.8683 149.421 26.9483 148.064L30.1723 144.008L33.3723 139.932C34.4229 138.572 35.4669 137.207 36.5043 135.836C35.4056 137.169 34.3149 138.515 33.2323 139.872L30.0083 143.932L26.8083 148.004C25.7549 149.372 24.7109 150.737 23.6763 152.1Z" fill="#8FA8B7"/>
<path d="M23.6763 135.844C24.7136 137.214 25.7589 138.58 26.8123 139.94L30.0123 144.016L33.2363 148.072C34.3029 149.421 35.3909 150.762 36.5003 152.096C35.4683 150.725 34.4243 149.36 33.3683 148L30.1683 143.928L26.9443 139.868C25.8669 138.529 24.7776 137.188 23.6763 135.844Z" fill="#8FA8B7"/>
<path d="M178.348 157.195H149.568V185.075H178.348V157.195Z" fill="#8FA8B7"/>
<path d="M134.712 185.078H149.572V157.198H134.712V185.078Z" fill="#E0F0FF"/>
<path d="M161.516 164.083H162.124H162.584L162.844 163.551L163.212 164.083L163.708 162.991L164.18 164.083H165.524H166.14L166.364 163.351L166.572 164.083H166.972V157.195H161.516V164.083Z" fill="#E3E9ED"/>
<path d="M135.732 183.419C136.833 181.395 137.924 179.363 139.004 177.323L142.228 171.195L145.428 165.043C146.495 162.987 147.539 160.926 148.56 158.859C147.461 160.883 146.371 162.915 145.288 164.955L142.064 171.079L138.884 177.235C137.828 179.291 136.777 181.353 135.732 183.419Z" fill="#8FA8B7"/>
<path d="M135.732 158.859C136.769 160.926 137.815 162.987 138.868 165.043L142.048 171.195L145.272 177.323C146.352 179.363 147.443 181.395 148.544 183.419C147.512 181.35 146.468 179.289 145.412 177.235L142.212 171.079L138.988 164.955C137.919 162.915 136.833 160.883 135.732 158.859Z" fill="#8FA8B7"/>
<path d="M128.308 19.2969V87.3369H175.132V19.2969H128.308ZM173.404 85.5889H130.036V21.0049H173.404V85.5889Z" fill="#F0F7FF"/>
<path d="M173.404 21.0078H130.036V85.5918H173.404V21.0078Z" fill="#E3E9ED"/>
<path d="M130.036 56.1641L173.404 56.1641V54.4361L130.036 54.4361V56.1641Z" fill="#F0F7FF"/>
<path d="M125.124 92.2734H178.312V87.3134H125.124V92.2734Z" fill="#8FA8B7"/>
<path d="M126.536 94.2574L176.904 95.3134V92.2734H126.536V94.2574Z" fill="#F0F7FF"/>
<path d="M130.036 21.0078H173.404V65.3798H130.036V21.0078ZM171.804 22.6078H131.636V63.7798H171.804V22.6078Z" fill="#8FA8B7"/>
<path d="M159.564 21.0078H158.7V63.7798H159.564V21.0078Z" fill="#8FA8B7"/>
<path d="M144.74 21.0078H143.876V63.7798H144.74V21.0078Z" fill="#8FA8B7"/>
<path d="M25.8682 19.2969V87.3369H72.6922V19.2969H25.8682ZM70.9642 85.5889H27.5962V21.0049H70.9642V85.5889Z" fill="#F0F7FF"/>
<path d="M70.9642 21.0078H27.5962V85.5918H70.9642V21.0078Z" fill="#E3E9ED"/>
<path d="M27.5959 56.1641L70.9639 56.1641V54.4361L27.5959 54.4361V56.1641Z" fill="#F0F7FF"/>
<path d="M22.6841 92.2734H75.8721V87.3134H22.6841V92.2734Z" fill="#8FA8B7"/>
<path d="M24.0962 94.2574L74.4642 95.3134V92.2734H24.0962V94.2574Z" fill="#F0F7FF"/>
<path d="M27.5962 21.0078H70.9642V65.3798H27.5962V21.0078ZM69.3642 22.6078H29.1962V63.7798H69.3642V22.6078Z" fill="#8FA8B7"/>
<path d="M57.1243 21.0078H56.2603V63.7798H57.1243V21.0078Z" fill="#8FA8B7"/>
<path d="M42.3 21.0078H41.436V63.7798H42.3V21.0078Z" fill="#8FA8B7"/>
<path d="M135.984 152.117H96.1118V185.061H135.984V152.117Z" fill="#0054A8"/>
<path opacity="0.1" d="M135.984 152.117H96.1118V185.061H135.984V152.117Z" fill="#040506"/>
<path d="M151.784 152.125H135.984V185.069H151.784V152.125Z" fill="#0054A8"/>
<path opacity="0.2" d="M151.784 152.125H135.984V185.069H151.784V152.125Z" fill="#040506"/>
<path d="M150.692 182.795C149.524 180.453 148.366 178.104 147.216 175.747L143.788 168.659L140.404 161.543C139.284 159.167 138.174 156.783 137.072 154.391C138.246 156.735 139.406 159.084 140.552 161.439L143.976 168.527L147.36 175.643C148.486 178.019 149.596 180.403 150.692 182.795Z" fill="#0054A8"/>
<path d="M150.692 154.391C149.594 156.791 148.483 159.175 147.36 161.543L143.976 168.659L140.552 175.747C139.403 178.101 138.243 180.451 137.072 182.795C138.174 180.395 139.284 178.011 140.404 175.643L143.788 168.527L147.216 161.443C148.366 159.083 149.524 156.732 150.692 154.391Z" fill="#0054A8"/>
<path d="M118.868 159.241H118.24H117.764L117.496 158.693L117.116 159.241L116.6 158.113L116.116 159.241H114.724H114.088L113.856 158.489L113.64 159.241H113.228V152.125H118.868V159.241Z" fill="#E3E9ED"/>
<path d="M138.388 119.18H108.64V152.12H138.388V119.18Z" fill="#0054A8"/>
<path d="M153.748 119.18H138.388V152.124H153.748V119.18Z" fill="#0054A8"/>
<path opacity="0.1" d="M153.748 119.18H138.388V152.124H153.748V119.18Z" fill="#040506"/>
<g opacity="0.1">
<path d="M136.208 149.85C134.024 147.506 131.858 145.156 129.712 142.802L123.3 135.698L116.984 128.582C114.888 126.206 112.813 123.822 110.76 121.43C112.946 123.774 115.112 126.124 117.256 128.482L123.656 135.566L129.972 142.682C132.076 145.068 134.154 147.458 136.208 149.85Z" fill="#040506"/>
<path d="M136.208 121.445C134.152 123.845 132.077 126.229 129.984 128.597L123.668 135.697L117.268 142.785C115.135 145.14 112.969 147.489 110.772 149.833C112.828 147.433 114.903 145.049 116.996 142.681L123.3 135.581L129.7 128.497C131.852 126.137 134.021 123.787 136.208 121.445Z" fill="#040506"/>
</g>
<path d="M151.588 146.547H148.896V150.347H151.588V146.547Z" fill="#E3E9ED"/>
<path d="M17.0801 185.083L37.9361 184.983L58.7921 184.951L100.5 184.883L142.208 184.951L163.064 184.983L183.92 185.083L163.064 185.179L142.208 185.215L100.5 185.283L58.7921 185.215L37.9361 185.179L17.0801 185.083Z" fill="#040506"/>
<path d="M116.388 71.6175C116.164 71.4735 115.94 71.3335 115.716 71.1975L115.872 70.9375L116.552 71.3655L116.388 71.6175Z" fill="#040506"/>
<path d="M106.62 111.697H106.332V111.397C106.866 111.409 107.4 111.389 107.932 111.337L107.964 111.637C107.528 111.669 107.072 111.697 106.62 111.697ZM109.588 111.369L109.524 111.077C110.044 110.959 110.555 110.803 111.052 110.609L111.16 110.889C110.648 111.085 110.123 111.243 109.588 111.361V111.369ZM112.64 110.169L112.492 109.909C112.952 109.64 113.389 109.335 113.8 108.997L113.992 109.225C113.569 109.578 113.116 109.895 112.64 110.173V110.169ZM115.172 108.089L114.952 107.885C115.311 107.49 115.641 107.071 115.94 106.629L116.188 106.797C115.881 107.254 115.542 107.689 115.172 108.097V108.089ZM117.004 105.373L116.732 105.245C116.96 104.763 117.146 104.263 117.288 103.749L117.576 103.829C117.431 104.361 117.239 104.879 117.004 105.377V105.373ZM117.868 102.205L117.568 102.181C117.568 101.965 117.596 101.745 117.596 101.533C117.595 101.236 117.578 100.94 117.544 100.645C117.233 100.624 116.923 100.585 116.616 100.529L116.668 100.233C117.156 100.321 117.652 100.367 118.148 100.369H118.252V100.669H118.144H117.844C117.876 100.958 117.892 101.25 117.892 101.541C117.896 101.757 117.884 101.985 117.868 102.209V102.205ZM119.896 100.469L119.828 100.177C120.343 100.055 120.841 99.8724 121.312 99.6329L121.448 99.9009C120.955 100.152 120.434 100.344 119.896 100.473V100.469ZM115.024 100.097C114.507 99.9104 114.005 99.683 113.524 99.4169L113.672 99.1569C114.138 99.4141 114.623 99.6335 115.124 99.8129L115.024 100.097ZM117.176 99.0409C117.001 98.5408 116.77 98.0618 116.488 97.6129L116.74 97.4529C117.036 97.9196 117.278 98.4189 117.46 98.9409L117.176 99.0409ZM122.824 98.9769L122.632 98.7489C123.038 98.4061 123.409 98.0243 123.74 97.6089L123.972 97.7969C123.63 98.2317 123.246 98.6311 122.824 98.9889V98.9769ZM112.168 98.4969L112.084 98.4169C111.688 98.0691 111.373 97.6391 111.16 97.1569L111.44 97.0449C111.635 97.4863 111.925 97.8795 112.288 98.1969L112.368 98.2689L112.168 98.4969ZM124.9 96.4529L124.644 96.2969C124.924 95.8329 125.184 95.3569 125.412 94.8889L125.684 95.0209C125.452 95.4969 125.188 95.9809 124.9 96.4529ZM115.492 96.3929C115.127 96.039 114.724 95.7252 114.292 95.4569L114.232 95.4169L114.388 95.1609L114.452 95.2009C114.898 95.4823 115.312 95.8109 115.688 96.1809L115.492 96.3929ZM111.52 95.6209L111.272 95.4529C111.443 95.2122 111.67 95.0167 111.934 94.8829C112.197 94.7492 112.489 94.6812 112.784 94.6849V94.9849C112.538 94.9834 112.295 95.0403 112.076 95.1509C111.856 95.2614 111.665 95.4225 111.52 95.6209ZM126.32 93.5129L126.04 93.4089C126.225 92.9068 126.384 92.3955 126.516 91.8769L126.804 91.9489C126.675 92.4792 126.515 93.0015 126.324 93.5129H126.32ZM127.12 90.3409L126.82 90.3009C126.891 89.7703 126.933 89.2361 126.944 88.7009H127.244C127.233 89.2494 127.192 89.7969 127.12 90.3409ZM126.888 87.1009C126.84 86.5639 126.764 86.0299 126.66 85.5009L126.956 85.4409C127.06 85.9766 127.138 86.5173 127.188 87.0609L126.888 87.1009ZM126.268 83.9569C126.116 83.4529 125.936 82.9449 125.728 82.4409L126.008 82.3289C126.216 82.8369 126.408 83.3569 126.556 83.8689L126.268 83.9569ZM125.068 80.9769C124.828 80.5089 124.56 80.0369 124.268 79.5729L124.524 79.4169C124.812 79.8849 125.084 80.3649 125.324 80.8409L125.068 80.9769ZM123.384 78.2329C123.076 77.8009 122.744 77.3729 122.4 76.9569L122.632 76.7649C122.98 77.1849 123.316 77.6209 123.628 78.0569L123.384 78.2329ZM121.336 75.7449C120.972 75.3449 120.588 74.9729 120.196 74.6049L120.4 74.3849C120.8 74.7609 121.2 75.1489 121.552 75.5409L121.336 75.7449ZM118.988 73.5329C118.588 73.1929 118.152 72.8569 117.724 72.5369L117.9 72.2969C118.336 72.6169 118.768 72.9569 119.18 73.3049L118.988 73.5329Z" fill="#040506"/>
<path d="M104.656 111.553C104.387 111.52 104.12 111.472 103.856 111.409L103.928 111.117C103.928 111.117 104.216 111.189 104.696 111.257L104.656 111.553Z" fill="#040506"/>
<path d="M100.62 110.959C100.432 112.559 103.7 113.455 103.948 111.359C104.196 109.263 100.808 109.347 100.62 110.959Z" fill="#040506"/>
<path d="M104.9 113.603C104.596 114.207 103.52 114.291 102.408 113.515C101.653 112.939 101.015 112.223 100.528 111.407C101.468 111.309 102.419 111.392 103.328 111.651C104.644 112.095 105.22 112.991 104.9 113.603Z" fill="#F0F7FF"/>
<path d="M100.54 111.406C101.172 111.69 101.792 111.998 102.412 112.302C103.032 112.606 103.644 112.93 104.248 113.266C103.616 112.982 102.996 112.674 102.376 112.37C101.756 112.066 101.144 111.742 100.54 111.406Z" fill="#040506"/>
<path d="M103.444 113.596C103.3 113.429 103.167 113.254 103.044 113.072C102.923 112.891 102.813 112.702 102.716 112.508C102.859 112.674 102.993 112.849 103.116 113.032C103.237 113.212 103.347 113.401 103.444 113.596Z" fill="#040506"/>
<path d="M102.1 112.188C102.32 112.131 102.543 112.086 102.768 112.052C102.995 112.02 103.223 112 103.452 111.992C103.009 112.103 102.556 112.168 102.1 112.188Z" fill="#040506"/>
<path d="M101.752 112.451C101.614 112.28 101.516 112.081 101.464 111.867C101.601 112.038 101.7 112.238 101.752 112.451Z" fill="#040506"/>
<path d="M105.428 109.419C105.272 108.759 104.248 108.431 102.988 108.927C102.118 109.314 101.331 109.864 100.668 110.547C101.567 110.858 102.518 110.994 103.468 110.947C104.816 110.835 105.588 110.099 105.428 109.419Z" fill="#F0F7FF"/>
<path d="M100.668 110.55C101.348 110.422 102.024 110.262 102.696 110.106C103.368 109.95 104.04 109.782 104.696 109.594C104.02 109.722 103.344 109.882 102.672 110.038C102 110.194 101.336 110.362 100.668 110.55Z" fill="#040506"/>
<path d="M104 109.094C103.826 109.218 103.659 109.351 103.5 109.494C103.341 109.643 103.19 109.801 103.048 109.966C103.224 109.844 103.391 109.711 103.548 109.566C103.708 109.417 103.859 109.26 104 109.094Z" fill="#040506"/>
<path d="M102.36 110.148C102.765 110.359 103.191 110.527 103.632 110.648C103.227 110.436 102.801 110.268 102.36 110.148Z" fill="#040506"/>
<path d="M102.1 109.812C102.013 109.878 101.934 109.953 101.864 110.036C101.795 110.122 101.735 110.215 101.684 110.312C101.771 110.246 101.851 110.169 101.92 110.084C101.993 110.003 102.053 109.911 102.1 109.812Z" fill="#040506"/>
<path d="M100.62 110.957C100.734 110.97 100.842 111.017 100.93 111.092C101.018 111.166 101.082 111.265 101.114 111.376C101.145 111.487 101.144 111.605 101.108 111.715C101.073 111.825 101.006 111.922 100.916 111.994C100.826 112.065 100.716 112.109 100.601 112.119C100.486 112.128 100.371 112.104 100.27 112.048C100.169 111.992 100.087 111.908 100.034 111.806C99.9807 111.703 99.9591 111.587 99.9718 111.473C99.9899 111.319 100.068 111.178 100.19 111.081C100.311 110.984 100.466 110.94 100.62 110.957Z" fill="#00264D"/>
<path d="M100.756 109.793C100.832 109.802 100.906 109.826 100.974 109.863C101.041 109.901 101.1 109.951 101.148 110.012C101.195 110.072 101.231 110.141 101.252 110.215C101.273 110.289 101.279 110.367 101.27 110.443C101.261 110.519 101.237 110.593 101.2 110.661C101.162 110.728 101.112 110.787 101.051 110.835C100.991 110.882 100.922 110.918 100.848 110.939C100.774 110.96 100.696 110.966 100.62 110.957C100.466 110.939 100.325 110.86 100.228 110.738C100.132 110.617 100.088 110.461 100.106 110.307C100.124 110.153 100.203 110.012 100.325 109.915C100.446 109.819 100.602 109.775 100.756 109.793Z" fill="#00264D"/>
<path d="M64.5 148.625C64.5 148.625 55.972 165.701 55.968 165.701C55.264 169.225 54.712 172.333 54.572 173.965C54.5699 173.974 54.5699 173.984 54.572 173.993C54.4981 174.371 54.5132 174.762 54.616 175.133C54.6139 175.142 54.6139 175.152 54.616 175.161C55.524 176.081 83.548 182.533 84.616 182.429C85.684 182.325 85.456 179.313 84.568 178.197C83.68 177.081 74.052 169.797 74.052 169.797L82.388 152.693L64.5 148.625Z" fill="#FFE5E5"/>
<path d="M84.1919 182.445C83.1399 182.549 55.5359 176.093 54.6319 175.177C54.6306 175.168 54.6306 175.158 54.6319 175.149C54.5272 174.778 54.5108 174.388 54.5839 174.009C54.5806 174 54.5806 173.99 54.5839 173.981C54.7199 172.349 55.2759 169.241 55.9759 165.713L58.0159 161.625L75.6999 166.473L74.0679 169.825C74.0679 169.825 83.2679 177.093 84.1599 178.225C85.0519 179.357 85.2479 182.345 84.1919 182.445Z" fill="#F0F7FF"/>
<path d="M84.5758 181.997C83.5078 182.077 55.4158 174.917 54.5198 173.965C54.1758 173.609 54.9798 169.453 56.0958 164.461L56.1318 164.305L74.3078 168.725L74.2238 169.029C74.2238 169.029 83.7478 176.581 84.6238 177.733C85.4998 178.885 85.6398 181.921 84.5758 181.997Z" fill="#040506"/>
<path d="M84.532 180.824C79.828 179.504 60.724 174.608 55.972 173.656C55.932 173.656 55.924 173.676 55.972 173.688C60.608 175.1 79.752 179.84 84.524 180.888C84.616 180.924 84.632 180.852 84.532 180.824Z" fill="#E3E9ED"/>
<path d="M75.7321 169.469C73.9561 168.645 71.6041 168.349 69.8441 169.317C69.7761 169.353 69.8441 169.449 69.8921 169.445C71.8197 169.324 73.7548 169.41 75.6641 169.701C75.6922 169.703 75.7199 169.695 75.7429 169.679C75.7659 169.663 75.7827 169.639 75.7906 169.612C75.7985 169.585 75.797 169.557 75.7864 169.531C75.7758 169.505 75.7566 169.483 75.7321 169.469Z" fill="#E3E9ED"/>
<path d="M76.8678 170.623C75.0958 169.803 72.7438 169.507 70.9798 170.471C70.9118 170.507 70.9798 170.603 71.0318 170.603C72.9594 170.48 74.8946 170.565 76.8038 170.859C76.8329 170.861 76.8621 170.854 76.8863 170.837C76.9104 170.821 76.9278 170.796 76.9355 170.768C76.9431 170.739 76.9405 170.709 76.9282 170.683C76.9158 170.656 76.8944 170.635 76.8678 170.623Z" fill="#E3E9ED"/>
<path d="M78.0079 171.782C76.2319 170.958 73.8799 170.662 72.1199 171.626C72.0519 171.666 72.1199 171.762 72.1719 171.758C74.0982 171.638 76.0319 171.724 77.9399 172.014C77.9679 172.016 77.9957 172.008 78.0187 171.992C78.0416 171.976 78.0585 171.953 78.0664 171.926C78.0743 171.899 78.0728 171.87 78.0622 171.844C78.0515 171.818 78.0324 171.796 78.0079 171.782Z" fill="#E3E9ED"/>
<path d="M85.2599 181.099C85.7119 181.419 85.1719 183.079 84.7759 183.123C84.3799 183.167 53.7839 175.223 53.2999 174.971C52.8159 174.719 53.4799 172.903 54.0999 172.971C54.7199 173.039 85.2599 181.099 85.2599 181.099Z" fill="#0054A8"/>
<path d="M59.9679 168.63C58.1919 167.094 55.7999 169.854 57.5679 171.394C59.3359 172.934 61.7479 170.17 59.9679 168.63Z" fill="#E3E9ED"/>
<path d="M58.0679 160.258L78.5639 165.426C78.5639 165.426 97.6679 130.95 97.2399 122.186C96.6519 110.098 82.4599 72.9297 82.4599 72.9297H65.4679C65.4679 72.9297 76.7439 113.11 76.8999 119.87C76.9679 123.406 58.0679 160.258 58.0679 160.258Z" fill="#00264D"/>
<path d="M79.4402 161.269C78.3482 160.833 68.5922 158.017 61.3122 156.469C61.3042 156.471 61.2972 156.476 61.2923 156.483C61.2873 156.49 61.2847 156.498 61.2847 156.507C61.2847 156.515 61.2873 156.523 61.2923 156.53C61.2972 156.537 61.3042 156.542 61.3122 156.545C63.6042 157.345 78.0682 161.157 79.4242 161.345C79.4562 161.357 79.4882 161.301 79.4402 161.269Z" fill="#040506"/>
<path d="M78.3078 111.238C76.9558 105.566 75.5078 99.9097 73.9878 94.2897C72.4678 88.6698 70.8398 82.9978 69.0518 77.4218C68.8358 76.7378 68.6078 76.0618 68.3878 75.3818C68.3815 75.36 68.3667 75.3417 68.3468 75.3308C68.327 75.3199 68.3036 75.3174 68.2818 75.3238C68.2601 75.3301 68.2418 75.3449 68.2309 75.3647C68.22 75.3846 68.2175 75.408 68.2238 75.4298C69.8238 80.9858 71.4238 86.5298 72.9398 92.1058C74.4558 97.6818 75.8998 103.274 77.2598 108.906C77.5998 110.298 77.9318 111.686 78.2558 113.082C78.6324 114.513 78.9236 115.964 79.1278 117.43C79.296 118.83 79.1997 120.249 78.8438 121.614C78.4579 122.955 77.9532 124.258 77.3358 125.51C74.8852 130.83 72.4358 136.151 69.9878 141.474C67.5398 146.81 67.1438 148.026 64.7878 153.406C64.4958 154.074 64.2038 154.742 63.9238 155.406C63.9238 155.45 63.9678 155.49 63.9918 155.442C66.6718 150.17 67.0838 148.902 69.5918 143.534C72.0998 138.166 74.5918 132.734 77.0798 127.33C78.1998 124.89 79.5158 122.402 79.6838 119.674C79.8518 116.826 78.9558 113.97 78.3078 111.238Z" fill="#040506"/>
<path d="M79.2358 155.372L79.8918 174.172C79.9998 177.772 80.1558 180.92 80.3918 182.54C80.3899 182.549 80.3899 182.559 80.3918 182.568C80.4053 182.953 80.5065 183.329 80.6878 183.668L80.7118 183.692C81.8038 184.384 110.56 184.368 111.564 184.028C112.568 183.688 111.68 180.808 110.564 179.916C109.448 179.024 98.4318 174.108 98.4318 174.108L97.5958 155.328L79.2358 155.372Z" fill="#FFE5E5"/>
<path d="M79.7559 170.331C79.7559 170.331 79.8919 174.179 79.8919 174.191C79.9999 177.791 80.1559 180.939 80.3919 182.559C80.3899 182.568 80.3899 182.578 80.3919 182.587C80.4465 182.964 80.5459 183.333 80.6879 183.687L80.7119 183.711C81.8039 184.403 110.56 184.387 111.564 184.047C112.568 183.707 111.68 180.827 110.564 179.935C109.448 179.043 98.4319 174.127 98.4319 174.127L98.3479 170.211L79.7559 170.331Z" fill="#F0F7FF"/>
<path d="M111.58 184.01C110.564 184.334 81.58 183.886 80.484 183.166C80.084 182.898 79.884 178.674 79.812 173.566V173.406L98.516 173.486V173.806C98.516 173.806 109.536 178.938 110.652 179.854C111.768 180.77 112.6 183.698 111.58 184.01Z" fill="#040506"/>
<path d="M111.272 182.896C106.388 182.7 86.6679 182.372 81.8239 182.552C81.7839 182.552 81.7839 182.58 81.8239 182.58C86.6599 182.88 106.384 183.052 111.272 182.98C111.372 182.956 111.376 182.896 111.272 182.896Z" fill="#E3E9ED"/>
<path d="M100.076 173.881C98.16 173.481 95.8 173.749 94.312 175.081C94.252 175.133 94.312 175.213 94.392 175.197C96.2387 174.634 98.14 174.267 100.064 174.105C100.087 174.098 100.108 174.083 100.122 174.064C100.137 174.045 100.146 174.022 100.147 173.997C100.149 173.973 100.142 173.949 100.13 173.928C100.117 173.907 100.098 173.891 100.076 173.881Z" fill="#E3E9ED"/>
<path d="M101.452 174.732C99.532 174.332 97.176 174.604 95.688 175.952C95.628 176.004 95.688 176.084 95.764 176.064C97.6118 175.499 99.5146 175.135 101.44 174.976C101.469 174.972 101.496 174.958 101.516 174.937C101.535 174.916 101.547 174.888 101.549 174.859C101.55 174.83 101.541 174.801 101.523 174.778C101.506 174.754 101.481 174.738 101.452 174.732Z" fill="#E3E9ED"/>
<path d="M102.824 175.592C100.908 175.192 98.5517 175.46 97.0597 176.792C97.0037 176.844 97.0597 176.924 97.1397 176.908C98.9865 176.345 100.888 175.979 102.812 175.816C102.835 175.809 102.855 175.794 102.87 175.775C102.885 175.756 102.894 175.733 102.895 175.708C102.896 175.684 102.89 175.66 102.877 175.639C102.865 175.618 102.846 175.602 102.824 175.592Z" fill="#E3E9ED"/>
<path d="M112.04 182.977C112.556 183.185 112.416 184.925 112.04 185.057C111.664 185.189 80.0398 184.561 79.5238 184.433C79.0078 184.305 79.2158 182.381 79.8438 182.289C80.4718 182.197 112.04 182.977 112.04 182.977Z" fill="#0054A8"/>
<path d="M84.548 176.719C82.464 175.635 80.776 178.875 82.864 179.959C84.952 181.043 86.636 177.803 84.548 176.719Z" fill="#E3E9ED"/>
<path d="M82.2479 72.8988C82.1719 73.2468 77.9359 89.9948 77.4079 90.3068C76.8079 90.6628 92.7999 112.179 94.6959 122.743C95.8959 129.499 98.6959 168.879 98.6959 168.879H78.3039C78.3039 168.879 76.3039 135.435 75.6399 124.415C75.3799 120.139 59.3399 100.371 57.8159 87.1908C57.3359 83.0388 60.3199 72.8828 60.3199 72.8828L82.2479 72.8988Z" fill="#00264D"/>
<path d="M77.7881 152.97C77.5481 147.43 77.3281 141.878 76.9241 136.346C76.6961 133.21 76.2481 130.174 75.9361 127.05C75.9361 126.886 75.7881 126.846 75.7921 127.014C75.9361 132.578 76.3961 138.082 76.6921 143.642C76.9881 149.202 77.2721 150.498 77.5881 156.042C77.7641 159.178 77.9201 162.314 78.1641 165.446C78.1667 165.454 78.1718 165.461 78.1786 165.466C78.1854 165.471 78.1937 165.474 78.2021 165.474C78.2105 165.474 78.2187 165.471 78.2255 165.466C78.2324 165.461 78.2374 165.454 78.2401 165.446C78.2521 159.878 78.0321 158.53 77.7881 152.97Z" fill="#040506"/>
<path d="M94.7158 123.006C94.5413 121.543 94.2579 120.094 93.8678 118.674C93.4477 117.296 92.8944 115.963 92.2158 114.694C90.8278 112.03 89.2478 109.454 87.7238 106.866C86.1998 104.278 84.6118 101.634 83.0038 99.0496C82.0998 97.5989 81.1918 96.1496 80.2798 94.7016C79.3518 93.2416 78.3718 91.8096 77.4158 90.3696C77.4083 90.3574 77.3964 90.3487 77.3825 90.3453C77.3686 90.3419 77.354 90.3442 77.3418 90.3516C77.3296 90.359 77.3208 90.371 77.3174 90.3849C77.3141 90.3988 77.3163 90.4134 77.3238 90.4256C78.8838 93.0416 80.4278 95.6616 81.9878 98.2776C83.5478 100.894 85.0838 103.518 86.6198 106.142C88.1558 108.766 89.6478 111.31 91.0958 113.934C91.8088 115.179 92.4226 116.479 92.9318 117.822C93.4053 119.212 93.7494 120.644 93.9598 122.098C94.5038 125.486 94.9478 128.898 95.6278 132.254C95.6304 132.262 95.6355 132.269 95.6423 132.274C95.6491 132.278 95.6573 132.281 95.6658 132.281C95.6742 132.281 95.6824 132.278 95.6892 132.274C95.6961 132.269 95.7011 132.262 95.7038 132.254C95.4918 129.166 95.1238 126.074 94.7158 123.006Z" fill="#040506"/>
<path d="M96.8998 165.382C95.7358 165.23 86.8518 164.922 79.4198 165.242C79.3718 165.242 79.3758 165.314 79.4198 165.318C81.8398 165.53 95.5238 165.626 96.8878 165.466C96.9238 165.462 96.9398 165.39 96.8998 165.382Z" fill="#040506"/>
<path d="M80.0679 89.1635C77.9902 89.9205 75.9826 90.8574 74.0679 91.9635C74.0514 91.9709 74.0386 91.9846 74.0322 92.0015C74.0258 92.0183 74.0264 92.0371 74.0339 92.0535C74.0413 92.07 74.0549 92.0828 74.0718 92.0892C74.0887 92.0955 74.1074 92.0949 74.1239 92.0875C76.1479 91.2155 78.2159 90.3835 80.1919 89.4035C80.2237 89.3871 80.2477 89.3587 80.2586 89.3245C80.2694 89.2904 80.2663 89.2533 80.2499 89.2215C80.2334 89.1897 80.205 89.1657 80.1709 89.1548C80.1367 89.1439 80.0997 89.1471 80.0679 89.1635Z" fill="#040506"/>
<path d="M80.6798 75.2993C80.6798 75.2313 80.5518 75.2153 80.5518 75.2993C80.5522 77.5596 80.4388 79.8185 80.2118 82.0673C80.1158 83.1113 79.2758 88.8673 77.4678 88.4673C77.1638 88.3953 77.0118 88.0993 76.9638 87.6393C76.9689 87.0422 77.0495 86.4482 77.2038 85.8713C77.4038 84.6713 77.5638 83.4713 77.6678 82.2353C77.8799 79.9643 77.8558 77.6774 77.5958 75.4113C77.5925 75.3985 77.5849 75.3872 77.5744 75.3792C77.564 75.3711 77.5511 75.3667 77.5378 75.3667C77.5246 75.3667 77.5117 75.3711 77.5012 75.3792C77.4908 75.3872 77.4832 75.3985 77.4798 75.4113C77.5322 78.5594 77.3477 81.707 76.9278 84.8273C76.6998 86.3273 75.9438 88.5873 77.5158 88.8273C79.0878 89.0673 80.1478 85.2793 80.3398 84.2433C80.8402 81.2893 80.9545 78.2828 80.6798 75.2993Z" fill="#040506"/>
<path d="M77.516 88.5915C77.3557 88.9821 77.2221 89.383 77.116 89.7915C77.0008 90.1053 76.9439 90.4374 76.948 90.7715C76.9499 90.7852 76.9559 90.7979 76.9653 90.8081C76.9746 90.8182 76.9869 90.8253 77.0003 90.8283C77.0138 90.8313 77.0278 90.8302 77.0406 90.8251C77.0534 90.8199 77.0643 90.811 77.072 90.7995C77.2609 90.5047 77.4026 90.1822 77.492 89.8435C77.632 89.4715 77.776 89.1075 77.892 88.7315C77.9105 88.6817 77.9085 88.6265 77.8864 88.5781C77.8643 88.5297 77.8238 88.4921 77.774 88.4735C77.7241 88.455 77.6689 88.457 77.6205 88.4791C77.5721 88.5012 77.5345 88.5417 77.516 88.5915Z" fill="#040506"/>
<path d="M78.3679 129.794C78.1759 126.946 78.1879 123.942 76.9759 121.302C76.3321 120.016 75.5913 118.78 74.7598 117.606C73.9332 116.342 73.1172 115.071 72.3119 113.794C69.1119 108.686 66.0239 103.474 63.2119 98.134C61.8559 95.562 60.6079 92.906 59.9279 90.066C59.2647 87.0774 59.1388 83.9947 59.5559 80.962C59.6519 80.206 59.7559 79.454 59.8799 78.702C59.8803 78.6918 59.8771 78.6818 59.871 78.6737C59.8648 78.6655 59.856 78.6598 59.8461 78.6574C59.8362 78.6551 59.8257 78.6562 59.8166 78.6607C59.8074 78.6652 59.8001 78.6727 59.7959 78.682C59.1377 81.5659 58.9126 84.5318 59.1279 87.482C59.4357 90.3027 60.2301 93.0487 61.4759 95.598C62.7159 98.282 64.1919 100.866 65.6479 103.438C67.1492 106.105 68.6945 108.733 70.2839 111.322C71.8839 113.906 73.5319 116.438 75.1839 118.982C76.0265 120.182 76.6832 121.502 77.1319 122.898C77.4956 124.355 77.7047 125.846 77.7559 127.346C78.1559 133.642 79.7559 154.574 80.3239 160.838C80.3919 161.638 80.4639 162.438 80.5399 163.238C80.5376 163.246 80.5372 163.255 80.5389 163.263C80.5405 163.272 80.5441 163.28 80.5493 163.287C80.5545 163.294 80.5613 163.299 80.569 163.303C80.5767 163.307 80.5852 163.309 80.5939 163.309C80.6025 163.309 80.611 163.307 80.6187 163.303C80.6264 163.299 80.6332 163.294 80.6384 163.287C80.6436 163.28 80.6472 163.272 80.6488 163.263C80.6505 163.255 80.6501 163.246 80.6479 163.238C80.4079 156.95 78.7799 136.07 78.3679 129.794Z" fill="#040506"/>
<path d="M68.58 78.418C68.58 78.374 68.508 78.39 68.508 78.418C68.448 80.166 68.508 81.974 67.824 83.618C67.208 85.134 65.968 86.198 64.58 86.994C63.7727 87.4469 62.9408 87.8542 62.088 88.2139C62.028 88.2419 62.052 88.338 62.12 88.318C63.72 87.806 65.372 87.2499 66.712 86.1779C68.144 85.0259 68.772 83.3579 68.84 81.5579C68.8645 80.505 68.7773 79.4525 68.58 78.418Z" fill="#040506"/>
<path d="M77.4562 49.932C79.7442 56.956 85.9242 68.92 88.1322 70.364C90.0882 71.64 99.2922 70.216 103.332 69.244C104.836 68.88 101.452 57.416 99.8482 57.836C97.9242 58.34 92.1922 59.632 91.7762 59.312C91.3602 58.992 85.5802 51.872 81.4842 47.68C77.7562 43.884 76.5922 47.276 77.4562 49.932Z" fill="#FFE5E5"/>
<path d="M102.448 69.3277C103.22 69.2317 109.752 68.9277 112.748 67.2997C114.348 66.4317 118.432 63.5597 118.024 62.5277C117.652 61.5877 116.34 62.0997 116.34 62.0997C116.34 62.0997 118.144 60.7917 117.616 59.4877C117.088 58.1837 114.908 59.1637 114.908 59.1637C114.908 59.1637 116.664 57.6837 116.044 56.4237C115.424 55.1637 113.4 56.5117 113.4 56.5117C113.4 56.5117 115.068 55.2357 114.12 54.4117C112.976 53.4197 110.164 56.1237 108.264 56.7557C107.832 56.8997 99.3198 59.0517 99.3198 59.0517L102.448 69.3277Z" fill="#FFE5E5"/>
<path d="M113.328 56.4733C111.256 58.4533 110.004 58.9613 107.236 59.5213C107.184 59.5213 107.188 59.6173 107.236 59.6093C109.996 59.3093 111.656 58.8973 113.42 56.5693C113.516 56.4533 113.424 56.3773 113.328 56.4733Z" fill="#040506"/>
<path d="M114.84 59.1143C112.508 60.9863 111.156 61.5463 108.3 62.3463C108.26 62.3463 108.276 62.4303 108.32 62.4223C111.184 61.8703 112.832 61.4223 114.916 59.2463C115.012 59.1503 114.948 59.0303 114.84 59.1143Z" fill="#040506"/>
<path d="M116.2 62.1345C113.8 63.7825 112.356 64.4666 109.484 64.8866C109.47 64.8866 109.457 64.892 109.447 64.9018C109.438 64.9115 109.432 64.9248 109.432 64.9385C109.432 64.9523 109.438 64.9656 109.447 64.9753C109.457 64.9851 109.47 64.9905 109.484 64.9905C112.456 64.8465 114.284 64.0105 116.232 62.2145C116.376 62.1025 116.348 62.0345 116.2 62.1345Z" fill="#040506"/>
<path d="M97.0879 59.419C97.0879 59.419 99.4679 56.727 100.772 55.775C102.076 54.823 108.252 53.063 108.708 54.375C109.296 56.071 105.932 57.787 104.176 58.411C104.176 58.411 105.54 62.331 103.376 64.083C101.212 65.835 97.0879 59.419 97.0879 59.419Z" fill="#FFE5E5"/>
<path d="M108.72 54.8984C108.14 56.8304 105.78 57.5024 104.12 58.2344C104.096 58.245 104.074 58.2612 104.057 58.2817C104.039 58.3022 104.027 58.3264 104.021 58.3524C104.015 58.3784 104.015 58.4055 104.021 58.4316C104.027 58.4576 104.039 58.4819 104.056 58.5024C104.52 60.1824 104.68 62.6864 103.504 64.1024C103.472 64.1424 103.524 64.1984 103.564 64.1624C105.032 62.8184 105.072 60.3424 104.448 58.5344C106.164 57.8104 108.5 57.0304 108.736 54.9064C108.74 54.8984 108.724 54.8984 108.72 54.8984Z" fill="#040506"/>
<path d="M102.444 71.2994L99.4282 57.5634L91.9642 58.9194C89.0202 55.5474 83.1362 48.8074 80.7642 46.7834C77.9642 44.4074 76.1322 46.1914 77.1642 49.7914C79.4962 58.0194 86.3162 70.0994 88.1002 71.2394C90.6882 72.8994 102.444 71.2994 102.444 71.2994Z" fill="#0054A8"/>
<path opacity="0.1" d="M91.788 63.0971C92.1575 63.1774 92.5339 63.2216 92.912 63.2291C93.712 63.3371 94.064 64.5171 93.336 64.9651C92.9537 65.2006 92.5215 65.3431 92.0741 65.3814C91.6268 65.4196 91.1767 65.3523 90.76 65.1851C89.96 64.8731 89.284 64.0971 89.456 63.1851C89.4858 63.0151 89.559 62.8557 89.6687 62.7224C89.7783 62.5891 89.9206 62.4864 90.0817 62.4244C90.2428 62.3624 90.4172 62.3431 90.5879 62.3685C90.7586 62.3938 90.9199 62.4629 91.056 62.5691C91.2776 62.7742 91.5234 62.9515 91.788 63.0971ZM89.724 59.8291C89.436 61.1891 91.54 62.3571 92.616 61.6331C92.7027 61.5674 92.7735 61.483 92.8232 61.3862C92.8728 61.2894 92.9 61.1826 92.9026 61.0738C92.9053 60.9651 92.8835 60.8571 92.8387 60.7579C92.7939 60.6588 92.7274 60.571 92.644 60.5011C92.328 60.2451 92.064 60.2051 91.784 59.9731C91.6861 59.8967 91.5999 59.8064 91.528 59.7051C91.3693 59.4864 91.1662 59.3037 90.932 59.1691C90.8101 59.117 90.678 59.0933 90.5457 59.0997C90.4133 59.106 90.2841 59.1424 90.1678 59.2059C90.0515 59.2694 89.9511 59.3585 89.8743 59.4665C89.7974 59.5744 89.746 59.6984 89.724 59.8291ZM86.368 59.9011C85.936 60.4651 86.26 61.3131 86.64 61.8251C86.811 62.0801 87.0466 62.2851 87.3228 62.4194C87.599 62.5536 87.9058 62.6122 88.212 62.5891C88.3235 62.5734 88.4282 62.5258 88.5133 62.4519C88.5984 62.3781 88.6603 62.2812 88.6916 62.173C88.7229 62.0647 88.7222 61.9498 88.6896 61.8419C88.6571 61.734 88.594 61.6379 88.508 61.5651C88.2674 61.3822 88.0752 61.1432 87.948 60.8691C87.76 60.4451 87.636 59.8971 87.148 59.7131C87.0147 59.6583 86.8676 59.647 86.7275 59.6807C86.5874 59.7145 86.4616 59.7916 86.368 59.9011ZM95.228 68.7971C94.664 69.9371 96.38 71.2331 97.42 71.0091C97.768 70.9331 98.104 70.4771 97.796 70.1491C97.548 69.8851 97.252 69.6771 97.02 69.3971C96.736 69.0571 96.58 68.6211 96.136 68.4491C95.9689 68.3792 95.7813 68.3763 95.6122 68.4411C95.4431 68.506 95.3055 68.6334 95.228 68.7971ZM79.116 54.8171C79.0176 54.6298 78.8814 54.465 78.716 54.3331C78.94 54.9064 79.176 55.4811 79.424 56.0571C79.4373 55.6233 79.3307 55.1943 79.116 54.8171ZM81.344 53.6171C81.2657 52.629 80.8796 51.6903 80.24 50.9331C79.76 50.3131 78.928 49.3331 78.048 49.5451C77.9544 49.5743 77.8728 49.6329 77.8152 49.7121C77.7575 49.7914 77.727 49.8871 77.728 49.9851C77.672 50.6611 78.448 51.3851 78.784 51.9251C79.184 52.6051 79.5 53.3571 79.932 54.0331C80.0223 54.1721 80.1551 54.2781 80.3106 54.3354C80.4662 54.3926 80.6361 54.398 80.7949 54.3508C80.9538 54.3035 81.0931 54.2062 81.1921 54.0732C81.291 53.9402 81.3443 53.7788 81.344 53.6131V53.6171ZM81.084 57.9171C81.2403 57.909 81.3899 57.8511 81.5108 57.7517C81.6318 57.6524 81.7177 57.5169 81.756 57.3651C81.8181 57.0546 81.7974 56.7331 81.696 56.4331C81.6362 56.1474 81.4976 55.8841 81.296 55.6731C81.2238 55.6063 81.1355 55.5594 81.0397 55.537C80.9439 55.5145 80.8439 55.5174 80.7496 55.5452C80.6552 55.573 80.5697 55.6249 80.5014 55.6957C80.4331 55.7665 80.3844 55.8538 80.36 55.9491C80.328 56.1827 80.328 56.4195 80.36 56.6531C80.36 56.7531 80.36 56.8531 80.36 56.9571C80.3579 57.1078 80.374 57.2582 80.408 57.4051C80.451 57.5512 80.54 57.6796 80.6618 57.7711C80.7836 57.8626 80.9316 57.9124 81.084 57.9131V57.9171Z" fill="white"/>
<path d="M99.832 70.0982C99.488 69.2982 98.632 65.7462 98.444 64.8622C98.256 63.9782 97.56 60.4022 97.356 59.4942C97.356 59.4422 97.412 59.4142 97.424 59.4622C97.64 60.3582 98.604 63.8862 98.816 64.7662C99.028 65.6462 99.824 69.1942 99.88 70.0862C99.8807 70.0894 99.8809 70.0926 99.8804 70.0959C99.8799 70.0991 99.8788 70.1022 99.8772 70.1049C99.8738 70.1106 99.8683 70.1146 99.862 70.1162C99.8556 70.1178 99.8489 70.1168 99.8432 70.1134C99.8376 70.1101 99.8335 70.1046 99.832 70.0982Z" fill="#040506"/>
<path opacity="0.1" d="M92.8998 71.9841C90.7998 71.9841 88.9558 71.7841 88.0998 71.2361C86.3038 70.0761 79.4838 58.0361 77.1358 49.7921C76.5438 47.7281 76.8998 46.2561 77.8358 45.8281L92.8998 71.9841Z" fill="#040506"/>
<path d="M59.0519 74.7801C59.1039 74.8561 84.0639 78.0561 84.3319 77.8241C84.4731 77.1292 84.5732 76.4267 84.6319 75.7201C84.6319 75.7201 82.3439 48.5441 81.1599 46.9481C80.1239 45.5561 76.9799 44.5481 74.8399 45.4561C70.3479 47.3601 59.5919 71.6401 59.7079 72.6561C59.6999 72.6441 58.9879 74.6841 59.0519 74.7801Z" fill="#0054A8"/>
<path opacity="0.1" d="M68.052 71.4792C68.4369 71.6661 68.8387 71.8162 69.252 71.9272C70.084 72.2592 70.16 73.6472 69.252 73.9272C68.7693 74.0804 68.2575 74.1185 67.7575 74.0386C67.2574 73.9588 66.783 73.7631 66.372 73.4672C65.572 72.9072 65.056 71.8672 65.488 70.9392C65.5673 70.7626 65.6907 70.6094 65.8463 70.4943C66.0019 70.3792 66.1845 70.3061 66.3766 70.282C66.5686 70.2579 66.7637 70.2836 66.9429 70.3567C67.1221 70.4297 67.2796 70.5477 67.4 70.6992C67.624 70.9592 67.76 71.3032 68.052 71.4792ZM66.684 67.3472C66 68.7592 67.98 70.6032 69.352 70.1032C69.4669 70.0573 69.5696 69.9853 69.652 69.8929C69.7344 69.8005 69.7942 69.6903 69.8268 69.5709C69.8594 69.4515 69.8638 69.3261 69.8397 69.2047C69.8156 69.0833 69.7637 68.9692 69.688 68.8712C69.416 68.5072 69.136 68.3912 68.888 68.0712C68.8024 67.9606 68.7337 67.838 68.684 67.7072C68.5658 67.4279 68.3931 67.175 68.176 66.9632C67.7 66.5032 66.936 66.8272 66.684 67.3472ZM64.372 65.8432C63.624 66.1232 63.432 67.1312 63.488 67.8432C63.4995 68.1891 63.6026 68.5257 63.7867 68.8188C63.9708 69.1118 64.2294 69.3508 64.536 69.5112C64.6517 69.5629 64.7799 69.58 64.9052 69.5603C65.0304 69.5407 65.1472 69.4852 65.2416 69.4006C65.3359 69.316 65.4037 69.2059 65.4368 69.0835C65.4699 68.9612 65.4669 68.8319 65.428 68.7112C65.301 68.3914 65.257 68.0446 65.3 67.7032C65.368 67.1912 65.572 66.5912 65.232 66.1312C65.1374 65.9986 65.0032 65.8993 64.8488 65.8476C64.6943 65.7959 64.5274 65.7943 64.372 65.8432ZM72.572 70.6032C72.3827 70.587 72.1943 70.6439 72.0455 70.7621C71.8968 70.8804 71.7989 71.0511 71.772 71.2392C71.7515 71.4413 71.8023 71.6443 71.9155 71.813C72.0287 71.9817 72.1972 72.1055 72.392 72.1632C72.6648 72.2532 72.9592 72.2532 73.232 72.1632C73.3716 72.108 73.4867 72.0044 73.556 71.8712C73.6363 71.7424 73.6689 71.5895 73.648 71.4392C73.6259 71.299 73.5616 71.1687 73.4637 71.0659C73.3658 70.963 73.239 70.8923 73.1 70.8632C73.0748 70.83 73.0452 70.8004 73.012 70.7752C72.885 70.6766 72.7322 70.6168 72.572 70.6032ZM66.44 60.9512C65.768 61.6392 66.04 63.2032 66.808 63.7312C66.9069 63.8064 67.0237 63.8544 67.1469 63.8704C67.27 63.8865 67.3953 63.87 67.5101 63.8227C67.625 63.7754 67.7254 63.6989 67.8015 63.6007C67.8777 63.5026 67.9268 63.3862 67.944 63.2632C67.9558 63.1048 67.9558 62.9457 67.944 62.7872C67.944 62.6152 67.92 62.5072 67.944 62.3872C68.0038 62.0452 68.016 61.6965 67.98 61.3512C67.9489 61.1874 67.872 61.0358 67.7581 60.9141C67.6442 60.7924 67.498 60.7055 67.3367 60.6636C67.1753 60.6216 67.0054 60.6264 66.8466 60.6774C66.6879 60.7283 66.5469 60.8233 66.44 60.9512ZM62.1 70.9032C61.176 71.9992 62.7 73.8792 63.896 73.9152C64.296 73.9152 64.788 73.5152 64.54 73.0752C64.34 72.7232 64.072 72.4112 63.896 72.0472C63.68 71.5992 63.628 71.0752 63.188 70.7712C63.0239 70.6506 62.82 70.5971 62.6179 70.6216C62.4157 70.6462 62.2305 70.7469 62.1 70.9032ZM84.168 70.5552C84.0174 70.5778 83.877 70.6446 83.7644 70.7471C83.6519 70.8497 83.5724 70.9834 83.536 71.1312C83.408 71.5752 83.392 71.9712 83.06 72.3312C82.7007 72.6139 82.3782 72.9404 82.1 73.3032C82.0536 73.3938 82.0315 73.4949 82.0359 73.5966C82.0402 73.6983 82.0709 73.7971 82.125 73.8834C82.179 73.9697 82.2545 74.0405 82.3441 74.0888C82.4336 74.1371 82.5342 74.1614 82.636 74.1592C83.3345 74.0734 83.974 73.7243 84.424 73.1832C84.344 72.4232 84.264 71.5312 84.172 70.5392L84.168 70.5552ZM82.168 67.2552C81.944 67.7992 81.984 68.4152 81.796 68.9832C81.631 69.5039 81.4347 70.0142 81.208 70.5112C81.04 70.8712 81.376 71.4392 81.812 71.2472C82.5211 70.975 83.1011 70.4449 83.436 69.7632C83.74 69.1352 84.076 68.0792 83.784 67.4112C83.492 66.7432 82.5 66.4512 82.16 67.2392L82.168 67.2552ZM79.888 72.7072C79.5556 73.1367 79.1303 73.4854 78.644 73.7272C78.5281 73.7632 78.4212 73.8234 78.3304 73.9038C78.2395 73.9842 78.1668 74.083 78.1171 74.1937C78.0673 74.3043 78.0416 74.4243 78.0418 74.5456C78.0419 74.667 78.0678 74.7869 78.1178 74.8974C78.1678 75.008 78.2407 75.1066 78.3317 75.1869C78.4227 75.2671 78.5298 75.3271 78.6457 75.3628C78.7617 75.3985 78.8839 75.4092 79.0043 75.3941C79.1247 75.379 79.2405 75.3385 79.344 75.2752C79.7579 75.0978 80.1278 74.8318 80.4278 74.4959C80.7277 74.16 80.9503 73.7625 81.08 73.3312C81.268 72.6392 80.332 72.1872 79.88 72.6912L79.888 72.7072ZM76.232 53.1072C76.4555 53.1545 76.6886 53.1134 76.8825 52.9926C77.0764 52.8718 77.216 52.6807 77.272 52.4592C77.496 51.5992 76.728 50.7152 76.12 50.1792C75.512 49.6432 74.656 49.1552 73.804 49.4312C73.6906 49.468 73.5884 49.5331 73.5072 49.6204C73.426 49.7077 73.3685 49.8143 73.34 49.9301C73.3116 50.0459 73.3132 50.167 73.3447 50.282C73.3762 50.397 73.4365 50.5021 73.52 50.5872C73.892 51.0512 74.408 51.3872 74.804 51.8432C75.2 52.2992 75.528 52.9752 76.224 53.0912L76.232 53.1072ZM79.3 56.5032C79.636 56.0192 79.376 55.3032 79.136 54.8432C79.0082 54.5895 78.8095 54.3783 78.564 54.2352C78.3988 54.1295 78.1985 54.0933 78.0067 54.1345C77.815 54.1757 77.6472 54.291 77.54 54.4552C77.4309 54.6827 77.4137 54.9434 77.492 55.1832C77.5254 55.3087 77.571 55.4306 77.628 55.5472V55.5832V55.6152C77.6995 55.9972 77.8613 56.3565 78.1 56.6632C78.1826 56.7464 78.2833 56.8093 78.3943 56.8471C78.5053 56.8849 78.6235 56.8965 78.7397 56.881C78.8559 56.8655 78.967 56.8234 79.0642 56.7578C79.1614 56.6923 79.2421 56.6051 79.3 56.5032ZM81.364 53.6392C81.2857 52.6511 80.8996 51.7124 80.26 50.9552C79.78 50.3352 78.948 49.3552 78.068 49.5672C77.9745 49.5964 77.8928 49.655 77.8352 49.7343C77.7776 49.8135 77.747 49.9092 77.748 50.0072C77.692 50.6832 78.468 51.4072 78.804 51.9472C79.204 52.6272 79.52 53.3792 79.952 54.0552C80.0462 54.1865 80.1794 54.2848 80.3327 54.336C80.4859 54.3872 80.6514 54.3888 80.8057 54.3405C80.9599 54.2922 81.0949 54.1965 81.1916 54.067C81.2882 53.9375 81.3416 53.7808 81.344 53.6192L81.364 53.6392ZM78.344 60.4872C78.4903 60.5192 78.6417 60.5192 78.788 60.4872C79.0097 60.419 79.1971 60.2688 79.312 60.0672C79.4195 59.8527 79.473 59.6151 79.468 59.3752C79.4608 59.1479 79.399 58.9257 79.288 58.7272L79.156 58.5632L78.98 58.4352C78.8699 58.3784 78.7484 58.3472 78.6246 58.3438C78.5008 58.3405 78.3778 58.3651 78.2648 58.4158C78.1518 58.4666 78.0517 58.5421 77.9719 58.6369C77.8921 58.7317 77.8347 58.8432 77.804 58.9632C77.7374 59.1962 77.6906 59.4344 77.664 59.6752L77.7 59.8952C77.728 60.0056 77.783 60.1073 77.86 60.1912C77.9809 60.3309 78.1436 60.4277 78.324 60.4672L78.344 60.4872ZM81.104 57.9392C81.2603 57.9311 81.4099 57.8732 81.5309 57.7738C81.6518 57.6745 81.7377 57.539 81.776 57.3872C81.8382 57.0767 81.8175 56.7552 81.716 56.4552C81.6562 56.1695 81.5176 55.9063 81.316 55.6952C81.2438 55.6284 81.1555 55.5815 81.0597 55.5591C80.9639 55.5367 80.864 55.5395 80.7696 55.5673C80.6752 55.5951 80.5897 55.647 80.5214 55.7178C80.4532 55.7886 80.4044 55.8759 80.38 55.9712C80.348 56.2048 80.348 56.4416 80.38 56.6752C80.38 56.7752 80.38 56.8752 80.38 56.9792C80.378 57.1299 80.3941 57.2803 80.428 57.4272C80.4728 57.5672 80.56 57.6897 80.6775 57.7779C80.7951 57.866 80.9371 57.9154 81.084 57.9192L81.104 57.9392Z" fill="white"/>
<path d="M79.6998 51.2156C78.1758 51.0756 76.2238 47.8196 75.8518 45.7516C75.8278 45.6076 76.4358 44.4036 77.1038 42.9076C77.5038 41.9996 77.9358 40.9756 78.2558 40.0156L83.7918 43.4996C83.0448 44.5864 82.4336 45.7604 81.9718 46.9956C81.9304 47.126 81.901 47.2599 81.8838 47.3956C81.8852 47.4183 81.8852 47.441 81.8838 47.4636C81.7438 48.2636 81.1758 51.3516 79.6998 51.2156Z" fill="#FFE5E5"/>
<path d="M81.8839 47.402C81.8851 47.4246 81.8851 47.4473 81.8839 47.47C81.6706 47.4283 81.4607 47.3708 81.2559 47.298C77.7919 46.05 78.4039 41.506 78.6479 40.25L80.0279 41.122L83.8079 43.522C83.0612 44.6083 82.4513 45.7825 81.9919 47.018C81.9443 47.1424 81.9081 47.271 81.8839 47.402Z" fill="#040506"/>
<path d="M78.8361 33.6035C77.6921 35.6635 77.4921 42.2795 78.7601 44.0355C80.5921 46.5795 84.2721 47.5715 86.6041 45.2355C88.8641 42.9475 88.9681 34.3195 87.4961 32.6555C85.3201 30.1835 80.5241 30.5595 78.8361 33.6035Z" fill="#FFE5E5"/>
<path d="M84.1482 38.9453C84.1482 38.9453 84.1122 38.9453 84.1122 38.9853C84.1122 39.4413 84.0322 39.9613 83.6162 40.0973V40.1253C84.1242 40.0693 84.2202 39.3773 84.1482 38.9453Z" fill="#040506"/>
<path d="M83.7599 38.4563C83.0279 38.3763 82.9199 39.8403 83.5959 39.9163C84.2719 39.9923 84.3719 38.5243 83.7599 38.4563Z" fill="#040506"/>
<path d="M86.772 39.1016C86.772 39.1016 86.804 39.1256 86.804 39.1456C86.752 39.5976 86.772 40.1256 87.168 40.3056C87.168 40.3056 87.168 40.3376 87.168 40.3336C86.668 40.2216 86.652 39.5216 86.772 39.1016Z" fill="#040506"/>
<path d="M87.2161 38.6641C87.9481 38.6641 87.8881 40.1321 87.2161 40.1321C86.5441 40.1321 86.6001 38.6601 87.2161 38.6641Z" fill="#040506"/>
<path d="M84.3521 38.1659C84.1481 38.2099 83.9521 38.2139 83.7521 38.2379C83.5449 38.2921 83.3256 38.2767 83.1281 38.1939C83.0706 38.156 83.0272 38.1002 83.0048 38.035C82.9824 37.9699 82.9821 37.8992 83.0041 37.8339C83.0697 37.7146 83.1656 37.6148 83.2822 37.5445C83.3989 37.4743 83.532 37.4361 83.6681 37.4339C83.9444 37.3808 84.2305 37.4352 84.4681 37.5859C84.5175 37.6231 84.5554 37.6734 84.5775 37.7312C84.5995 37.789 84.6048 37.8518 84.5926 37.9124C84.5805 37.9731 84.5515 38.029 84.5089 38.0739C84.4664 38.1187 84.412 38.1506 84.3521 38.1659Z" fill="#040506"/>
<path d="M87.8721 37.3018C87.6779 37.2473 87.4869 37.1818 87.3001 37.1058C87.0897 37.0661 86.8984 36.9578 86.7561 36.7978C86.7205 36.7391 86.7055 36.6703 86.7135 36.6022C86.7215 36.5341 86.752 36.4706 86.8001 36.4218C86.9094 36.3383 87.0393 36.286 87.1759 36.2705C87.3126 36.255 87.4509 36.2768 87.5761 36.3338C87.8463 36.4077 88.0798 36.5786 88.2321 36.8138C88.2637 36.8696 88.2785 36.9333 88.2747 36.9974C88.2708 37.0614 88.2485 37.123 88.2104 37.1746C88.1724 37.2262 88.1201 37.2657 88.0601 37.2883C88.0001 37.3108 87.9348 37.3155 87.8721 37.3018Z" fill="#040506"/>
<path d="M83.8159 42.5516C84.405 42.4106 85.0189 42.4106 85.608 42.5516C85.66 42.5516 85.7119 42.4476 85.7239 42.3996L85.7559 41.4396C85.88 41.5116 86.5039 41.8396 86.5039 41.6636C86.5691 40.1033 86.4739 38.5405 86.22 36.9996C86.2172 36.9907 86.2116 36.9829 86.204 36.9773C86.1965 36.9717 86.1873 36.9688 86.178 36.9688C86.1686 36.9688 86.1594 36.9717 86.1519 36.9773C86.1443 36.9829 86.1387 36.9907 86.1359 36.9996C86.0719 38.4436 86.2559 39.8836 86.2119 41.3356C85.9912 41.2133 85.7542 41.1231 85.508 41.0676C85.456 41.0676 85.508 42.0876 85.508 42.2396C84.9574 42.05 84.3545 42.083 83.828 42.3316C83.62 42.4636 83.5359 42.6396 83.8159 42.5516Z" fill="#040506"/>
<path d="M82.6318 43.5076C82.7318 43.6196 82.8318 43.7716 82.9918 43.7956C83.1599 43.8036 83.3278 43.775 83.4838 43.7116C83.4838 43.7116 83.5118 43.7116 83.4838 43.7356C83.4149 43.8205 83.324 43.8848 83.221 43.9215C83.1179 43.9582 83.0068 43.9658 82.8998 43.9436C82.8124 43.9156 82.7349 43.863 82.6767 43.792C82.6185 43.7211 82.5821 43.6348 82.5718 43.5436C82.5798 43.4996 82.6158 43.4916 82.6318 43.5076Z" fill="#040506"/>
<path opacity="0.2" d="M80.7681 31.5C80.7081 32.528 80.4641 35.716 79.9681 36.364C79.4721 37.012 78.4241 38.52 77.8921 38.764C77.9641 36.64 78.2921 34.62 78.8401 33.564C79.2894 32.7179 79.9546 32.0058 80.7681 31.5Z" fill="#040506"/>
<path d="M86.4682 34.6142C86.1885 34.8989 85.8406 35.1072 85.4576 35.2192C85.0745 35.3312 84.6692 35.3433 84.2802 35.2542C83.8821 35.1656 83.5135 34.9759 83.2102 34.7033C82.9068 34.4307 82.6788 34.0845 82.5482 33.6982C82.5482 33.6742 82.5042 33.6982 82.5122 33.6982C82.6139 34.1153 82.828 34.4966 83.1312 34.8006C83.4345 35.1045 83.8153 35.3195 84.2322 35.4222C84.6484 35.5016 85.0783 35.4694 85.478 35.3289C85.8778 35.1884 86.2332 34.9446 86.5082 34.6222C86.5322 34.6262 86.5002 34.5902 86.4682 34.6142Z" fill="#040506"/>
<path d="M84.4599 28.6881C83.8452 28.6465 83.2299 28.7602 82.6707 29.0189C82.1114 29.2775 81.6263 29.6727 81.2599 30.1681C80.9477 30.6722 80.8152 31.2671 80.8839 31.8561H80.9359C80.9435 31.3393 81.0906 30.8341 81.3617 30.394C81.6328 29.954 82.0178 29.5953 82.4759 29.3561C82.9767 29.0757 83.5355 28.915 84.1087 28.8866C84.6819 28.8581 85.2538 28.9627 85.7799 29.1921C86.2973 29.4054 86.7225 29.7951 86.9799 30.2921C87.0039 30.3441 87.1079 30.3201 87.0879 30.2681C86.7599 29.3961 85.6999 28.7481 84.4599 28.6881Z" fill="#040506"/>
<path d="M92.1 32.173C91.926 31.4958 91.5178 30.9021 90.948 30.497C90.148 29.925 89.212 29.933 88.276 29.965C88.248 29.965 88.252 30.005 88.276 30.001C89.0718 29.9179 89.8746 30.0665 90.588 30.429C91.1685 30.7774 91.6108 31.3158 91.84 31.953C92.0579 32.6065 92.0327 33.3168 91.7689 33.9532C91.5051 34.5896 91.0204 35.1094 90.404 35.417C90.0452 35.5856 89.6557 35.679 89.2594 35.6914C88.8632 35.7038 88.4686 35.6349 88.1 35.489C88.072 35.489 88.048 35.517 88.076 35.533C88.5747 35.7533 89.1252 35.8298 89.6651 35.7537C90.205 35.6777 90.713 35.4522 91.1315 35.1028C91.55 34.7533 91.8625 34.2937 92.0336 33.776C92.2048 33.2583 92.2278 32.7031 92.1 32.173Z" fill="#040506"/>
<path d="M78.4362 34.9041C78.4362 34.9041 77.3322 32.3881 78.5122 31.0681C79.1802 30.3241 81.1882 30.5801 81.1882 30.5801C81.788 29.8186 82.6657 29.3266 83.6282 29.2121C85.3442 28.9441 87.3002 30.1041 87.3002 30.1041C87.3002 30.1041 88.9722 29.3041 90.4082 30.2761C92.4082 31.6321 91.9082 34.8041 89.7242 35.6681C88.1882 36.2801 86.2762 34.8161 86.2762 34.8161C86.0842 34.8161 84.0122 35.8721 82.6482 33.9921C82.6482 33.9921 81.3522 34.9801 80.3162 34.1401C80.1192 34.445 79.8331 34.682 79.4967 34.8187C79.1604 34.9553 78.7901 34.9852 78.4362 34.9041Z" fill="#040506"/>
<path d="M79.0881 39.0821C79.0881 39.0821 78.0401 36.7341 77.0041 37.0821C75.9681 37.4301 76.4721 40.6221 77.4961 41.2461C77.6209 41.3328 77.7618 41.3937 77.9106 41.425C78.0593 41.4563 78.2128 41.4575 78.362 41.4284C78.5112 41.3993 78.6531 41.3405 78.7792 41.2556C78.9053 41.1707 79.013 41.0614 79.0961 40.9341L79.0881 39.0821Z" fill="#FFE5E5"/>
<path d="M77.1719 37.9844V38.0124C77.8839 38.4724 78.1519 39.2684 78.2919 40.0644C78.2618 39.9786 78.2134 39.9004 78.1501 39.8351C78.0868 39.7699 78.0101 39.7192 77.9253 39.6864C77.8405 39.6537 77.7496 39.6398 77.6589 39.6457C77.5681 39.6515 77.4798 39.677 77.3999 39.7204C77.3759 39.7204 77.3999 39.7644 77.3999 39.7644C77.5456 39.7475 77.6928 39.7771 77.8207 39.849C77.9486 39.9208 78.0505 40.0312 78.1119 40.1644C78.2204 40.3807 78.3037 40.6089 78.3599 40.8444C78.3599 40.9204 78.5119 40.9084 78.5039 40.8444C78.7079 39.8124 78.2079 38.2884 77.1719 37.9844Z" fill="#040506"/>
<path d="M134.531 43.7387L91.4663 56.9297L99.2309 82.2792L142.296 69.0882L134.531 43.7387Z" fill="#0054A8"/>
<path opacity="0.2" d="M134.531 43.7387L91.4663 56.9297L99.2309 82.2792L142.296 69.0882L134.531 43.7387Z" fill="#040506"/>
<path opacity="0.2" d="M134.529 43.739L120.057 48.1719L127.821 73.5214L142.294 69.0884L134.529 43.739Z" fill="#040506"/>
<path d="M133.836 45.0312C133.348 47.2766 132.873 49.5219 132.412 51.7672L131.048 58.5193L129.728 65.2992C129.296 67.5553 128.875 69.8152 128.464 72.0792C128.952 69.8366 129.427 67.5912 129.888 65.3433L131.252 58.5912L132.572 51.8273C133.004 49.5606 133.425 47.2952 133.836 45.0312Z" fill="#0054A8"/>
<path d="M140.944 68.2438C139.344 66.6011 137.729 64.9651 136.1 63.3358L131.22 58.4718L126.308 53.6438C124.665 52.0438 123.015 50.4438 121.356 48.8438C122.956 50.4891 124.571 52.1251 126.2 53.7517L131.08 58.6158L135.992 63.4438C137.637 65.0598 139.288 66.6598 140.944 68.2438Z" fill="#0054A8"/>
<path d="M99.7375 60.1976L99.9746 60.125L98.9542 56.7938L98.7171 56.8664L99.7375 60.1976Z" fill="#040506"/>
<path d="M99.174 60.3695L99.4111 60.2969L98.3908 56.9656L98.1536 57.0383L99.174 60.3695Z" fill="#040506"/>
<path d="M98.6056 60.5492L98.8428 60.4766L97.8224 57.1453L97.5853 57.218L98.6056 60.5492Z" fill="#040506"/>
<path d="M98.0431 60.7132L98.2803 60.6406L97.2605 57.3092L97.0234 57.3818L98.0431 60.7132Z" fill="#040506"/>
<path d="M97.4753 60.8851L97.7124 60.8125L96.692 57.4813L96.4549 57.5539L97.4753 60.8851Z" fill="#040506"/>
<path d="M96.9108 61.057L97.1479 60.9844L96.1276 57.6531L95.8905 57.7258L96.9108 61.057Z" fill="#040506"/>
<path d="M96.3395 61.2445L96.5767 61.1719L95.5563 57.8406L95.3192 57.9133L96.3395 61.2445Z" fill="#040506"/>
<path d="M95.7746 61.4086L96.0117 61.3359L94.9908 58.0049L94.7537 58.0776L95.7746 61.4086Z" fill="#040506"/>
<path d="M95.2043 61.5883L95.4414 61.5156L94.421 58.1844L94.1839 58.257L95.2043 61.5883Z" fill="#040506"/>
<path d="M101.352 56.3391L100.368 56.3631L102.5 55.7031L101.668 56.2391L102.044 57.4631C102.72 57.3471 103.176 57.9111 103.52 59.0311L101.388 59.7031C101.044 58.5871 101.104 57.8631 101.728 57.5791L101.352 56.3391Z" fill="#040506"/>
<path d="M103.496 57.1853L104.052 57.0133L103.552 55.3813L104.976 54.9453L105.476 56.5773L106.036 56.4053L105.284 58.4933L103.496 57.1853Z" fill="#040506"/>
<path opacity="0.1" d="M91.4678 56.9279L92.1038 59.0079L121.872 54.0959L120.056 48.1719L91.4678 56.9279Z" fill="#040506"/>
<path d="M147.876 71.9619L133.4 76.3939L127.82 73.5219L142.296 69.0859L147.876 71.9619Z" fill="#0054A8"/>
<path opacity="0.2" d="M147.876 71.9619L133.4 76.3939L127.82 73.5219L142.296 69.0859L147.876 71.9619Z" fill="#040506"/>
<path d="M96.2158 87.7838L110.692 83.3478L113.704 77.8438L99.2278 82.2758L96.2158 87.7838Z" fill="#0054A8"/>
<path opacity="0.1" d="M96.2158 87.7838L110.692 83.3478L113.704 77.8438L99.2278 82.2758L96.2158 87.7838Z" fill="#040506"/>
<path d="M72.392 53.019C74.508 60.095 80.392 72.219 82.576 73.699C84.5 75.023 93.736 73.819 97.776 72.943C99.288 72.619 96.176 61.075 94.576 61.455C92.64 61.915 86.876 63.055 86.468 62.739C86.06 62.423 80.468 55.139 76.468 50.867C72.836 46.979 71.592 50.343 72.392 53.019Z" fill="#FFE5E5"/>
<path d="M93.7441 62.3936C93.7441 62.3936 96.8041 58.9456 98.9721 57.6296C101.261 56.3198 103.833 55.5854 106.468 55.4896C109.312 55.3776 116.268 57.0656 116.128 59.1536C116.004 61.0456 108.984 58.9576 108.984 58.9576C108.984 58.9576 116.492 59.9056 115.924 62.1576C115.356 64.4096 107.344 61.5176 107.344 61.5176C107.344 61.5176 115.036 62.6616 114.1 64.8976C113.38 66.5816 105.976 64.3736 105.976 64.3736C105.976 64.3736 112.584 65.4056 111.916 67.1736C111.18 69.1216 104.216 67.5136 104.216 67.5136C101.772 71.7056 98.8881 72.7136 96.7561 73.1656C96.2241 73.2576 93.7441 62.3936 93.7441 62.3936Z" fill="#FFE5E5"/>
<path d="M106.408 58.4609C107.292 58.5409 108.192 58.6169 109.068 58.7729C109.944 58.9289 110.812 59.1209 111.672 59.3609C112.798 59.6505 113.888 60.0679 114.92 60.6049C113.02 59.7849 109.892 59.1689 109.016 59.0049C108.14 58.8409 107.272 58.6449 106.4 58.4889C106.376 58.4969 106.384 58.4609 106.408 58.4609Z" fill="#040506"/>
<path d="M105.78 61.6176C106.904 61.7656 108.032 61.8736 109.152 62.0736C110.272 62.2736 111.308 62.5616 112.408 62.8376C112.492 62.8576 112.452 62.8976 112.368 62.8776C111.256 62.6456 110.216 62.5176 109.104 62.3016C107.992 62.0856 106.888 61.8216 105.772 61.6416C105.756 61.6416 105.76 61.6136 105.78 61.6176Z" fill="#040506"/>
<path d="M104.752 64.2268C106.487 64.4151 108.197 64.7823 109.856 65.3227C109.94 65.3467 109.884 65.3907 109.796 65.3707C108.108 64.9707 106.784 64.6508 104.748 64.2868C104.716 64.2828 104.716 64.2228 104.752 64.2268Z" fill="#040506"/>
<path d="M96.8602 74.9956L94.1722 61.1876L86.6802 62.3636C83.8162 58.9236 78.0962 52.0436 75.7602 49.9636C73.0202 47.5196 71.1442 49.2636 72.0842 52.8836C74.2362 61.1596 80.7642 73.3836 82.5322 74.5836C85.0682 76.3036 96.8602 74.9956 96.8602 74.9956Z" fill="#0054A8"/>
<path opacity="0.1" d="M91.788 63.0958C92.1575 63.1761 92.5339 63.2203 92.912 63.2278C93.712 63.3358 94.064 64.5158 93.336 64.9638C92.9537 65.1993 92.5215 65.3418 92.0742 65.38C91.6268 65.4182 91.1767 65.351 90.76 65.1838C89.96 64.8718 89.284 64.0958 89.456 63.1838C89.4858 63.0138 89.5591 62.8544 89.6687 62.721C89.7784 62.5877 89.9206 62.4851 90.0817 62.4231C90.2428 62.3611 90.4172 62.3418 90.5879 62.3672C90.7586 62.3925 90.9199 62.4616 91.056 62.5678C91.2777 62.7728 91.5235 62.9501 91.788 63.0958ZM90.988 61.6798C91.239 61.8008 91.5154 61.8595 91.7939 61.8512C92.0723 61.8428 92.3447 61.7676 92.588 61.6318C92.6776 61.5719 92.7495 61.489 92.796 61.3918L90.988 61.6798ZM87.096 62.2878C87.4145 62.5204 87.8076 62.6273 88.2 62.5878C88.3353 62.5692 88.4598 62.5038 88.5519 62.403C88.644 62.3021 88.6978 62.1722 88.704 62.0358L87.096 62.2878ZM95.576 68.4518C95.4177 68.5181 95.2895 68.6406 95.216 68.7958C94.88 69.4718 95.348 70.1998 96.016 70.6358L95.576 68.4518ZM83.528 71.1078C83.4 71.5518 83.384 71.9478 83.052 72.3078C82.6945 72.5959 82.3747 72.9278 82.1 73.2958C82.0536 73.3864 82.0315 73.4875 82.0358 73.5892C82.0402 73.6909 82.0709 73.7897 82.1249 73.876C82.179 73.9622 82.2545 74.033 82.344 74.0814C82.4336 74.1297 82.5342 74.154 82.636 74.1518C83.3329 74.066 83.9722 73.7216 84.4271 73.1867C84.882 72.6517 85.1193 71.9654 85.092 71.2638C85.0695 71.084 84.9867 70.9171 84.857 70.7905C84.7273 70.664 84.5585 70.5852 84.3782 70.5671C84.1979 70.5489 84.0168 70.5926 83.8645 70.6908C83.7122 70.789 83.5978 70.936 83.54 71.1078H83.528ZM82.148 67.2318C81.924 67.7758 81.964 68.3918 81.776 68.9598C81.611 69.4805 81.4146 69.9908 81.188 70.4878C81.02 70.8478 81.356 71.4158 81.792 71.2238C82.5011 70.9516 83.0811 70.4215 83.416 69.7398C83.72 69.1118 84.056 68.0558 83.764 67.3878C83.472 66.7198 82.5 66.4438 82.16 67.2318H82.148ZM76.212 53.0838C76.4355 53.1311 76.6686 53.09 76.8625 52.9692C77.0564 52.8484 77.196 52.6572 77.252 52.4358C77.476 51.5758 76.708 50.6918 76.1 50.1558C75.492 49.6198 74.636 49.1318 73.784 49.4078C73.6706 49.4445 73.5684 49.5097 73.4872 49.597C73.406 49.6843 73.3485 49.7909 73.32 49.9067C73.2916 50.0225 73.2932 50.1436 73.3247 50.2586C73.3562 50.3736 73.4165 50.4786 73.5 50.5638C73.872 51.0278 74.388 51.3638 74.784 51.8198C75.18 52.2758 75.528 52.9678 76.224 53.0838H76.212ZM79.3 56.4958C79.636 56.0118 79.376 55.2958 79.136 54.8358C79.0082 54.582 78.8095 54.3708 78.564 54.2278C78.3988 54.1221 78.1985 54.0859 78.0067 54.1271C77.815 54.1683 77.6472 54.2835 77.54 54.4478C77.4309 54.6752 77.4137 54.936 77.492 55.1758C77.5254 55.3012 77.571 55.4231 77.628 55.5398V55.5758V55.6078C77.6995 55.9898 77.8613 56.3491 78.1 56.6558C78.1826 56.739 78.2833 56.8019 78.3943 56.8397C78.5053 56.8775 78.6235 56.8891 78.7397 56.8736C78.8559 56.8581 78.967 56.8159 79.0642 56.7504C79.1614 56.6848 79.2421 56.5977 79.3 56.4958ZM78.344 60.4958C78.4903 60.5277 78.6417 60.5277 78.788 60.4958C79.0097 60.4275 79.1971 60.2773 79.312 60.0758C79.4195 59.8612 79.473 59.6237 79.468 59.3838C79.4608 59.1565 79.399 58.9342 79.288 58.7358L79.156 58.5718L78.98 58.4438C78.8699 58.387 78.7484 58.3558 78.6246 58.3524C78.5008 58.349 78.3778 58.3736 78.2648 58.4244C78.1518 58.4751 78.0516 58.5507 77.9719 58.6455C77.8921 58.7402 77.8347 58.8518 77.804 58.9718C77.7374 59.2048 77.6906 59.4429 77.664 59.6838L77.7 59.9038C77.728 60.0142 77.783 60.1159 77.86 60.1998C77.9831 60.3335 78.1456 60.4246 78.324 60.4598L78.344 60.4958ZM81.7 56.4358L80.9 55.5358C80.7722 55.5205 80.6432 55.5529 80.5377 55.6267C80.4322 55.7005 80.3576 55.8105 80.328 55.9358C80.296 56.1694 80.296 56.4062 80.328 56.6398C80.328 56.7398 80.328 56.8398 80.328 56.9438C80.3259 57.0945 80.3421 57.2449 80.376 57.3918C80.4197 57.544 80.5132 57.6772 80.6416 57.77C80.77 57.8628 80.9257 57.9099 81.084 57.9038C81.2403 57.8957 81.3899 57.8377 81.5109 57.7384C81.6318 57.639 81.7177 57.5035 81.756 57.3518C81.8161 57.0467 81.7968 56.7313 81.7 56.4358Z" fill="white"/>
<path d="M94.2762 73.7265C93.9522 72.9065 93.1922 69.3465 93.0122 68.4545C92.8322 67.5625 92.2362 63.9785 92.0562 63.0625C92.0562 63.0145 92.1122 62.9825 92.1242 63.0345C92.3162 63.9345 93.2002 67.4825 93.3882 68.3705C93.5762 69.2585 94.2922 72.8185 94.3242 73.7145C94.3257 73.7209 94.3247 73.7276 94.3214 73.7332C94.318 73.7388 94.3125 73.7429 94.3062 73.7445C94.2998 73.7461 94.2931 73.7451 94.2874 73.7417C94.2818 73.7383 94.2777 73.7329 94.2762 73.7265Z" fill="#040506"/>
<path d="M91.8038 75.3801C90.5758 75.4521 89.3478 75.4801 88.1198 75.4721C86.8873 75.4775 85.6556 75.4067 84.4318 75.2601C83.8048 75.1981 83.1917 75.036 82.6158 74.7801C82.0982 74.4146 81.6487 73.961 81.2878 73.4401C80.5627 72.4392 79.9066 71.3901 79.3238 70.3001C78.1238 68.1441 77.0918 65.9001 76.0838 63.6681C75.0758 61.4361 74.1598 59.1401 73.3198 56.8281C74.3398 59.0641 75.3478 61.3041 76.3958 63.5241C77.4438 65.7441 78.5038 67.9561 79.6478 70.1201C80.2188 71.1995 80.8491 72.2464 81.5358 73.2561C81.8564 73.7588 82.2626 74.2015 82.7358 74.5641C83.2813 74.8157 83.8632 74.979 84.4598 75.0481C86.896 75.3433 89.351 75.4543 91.8038 75.3801Z" fill="#040506"/>
<path d="M74.1001 58.7774C73.9358 58.6114 73.7872 58.4307 73.6561 58.2374C73.5204 58.046 73.4164 57.8339 73.3481 57.6094C73.4084 57.7087 73.4738 57.8049 73.5441 57.8974L73.7401 58.1814C73.8718 58.3728 73.992 58.5718 74.1001 58.7774Z" fill="#040506"/>
<path d="M80.416 55.0703C81.428 56.0863 82.336 57.2023 83.276 58.2703C84.216 59.3383 85.116 60.4663 86.076 61.5303L86.432 61.9303C86.496 61.9903 86.556 62.0583 86.616 62.1143C86.676 62.1703 86.676 62.1663 86.704 62.1903C86.704 62.1903 86.732 62.1903 86.748 62.1903C87.052 62.1903 87.436 62.1223 87.78 62.0783L89.908 61.7623C91.324 61.5543 92.744 61.3383 94.164 61.1463L94.22 61.4983L94.136 61.1503H94.156C92.752 61.4503 91.356 61.7183 89.932 61.9783C89.224 62.1063 88.516 62.2183 87.804 62.3263C87.44 62.3895 87.0728 62.4322 86.704 62.4543C86.6748 62.4581 86.6452 62.4581 86.616 62.4543C86.5768 62.4425 86.5402 62.4236 86.508 62.3983C86.4677 62.367 86.429 62.3336 86.392 62.2983L86.196 62.1063C86.068 61.9743 85.948 61.8423 85.828 61.7063C84.888 60.6143 83.976 59.5103 83.08 58.3903L81.74 56.7063C81.3 56.1823 80.9 55.6063 80.416 55.0703Z" fill="#040506"/>
<path d="M80.9399 55.1953C81.0906 55.3804 81.2244 55.5785 81.3399 55.7873C81.4527 55.9936 81.5323 56.2163 81.5759 56.4473C81.5279 56.3393 81.4679 56.2433 81.4119 56.1393L81.2479 55.8313C81.1339 55.625 81.0311 55.4127 80.9399 55.1953Z" fill="#040506"/>
<path d="M32.964 159.787C32.8159 156.044 32.868 152.296 33.12 148.559C33.6716 140.856 34.8475 133.211 36.636 125.699C37.616 121.467 38.824 117.299 40.084 113.147C40.12 113.023 40.32 113.059 40.288 113.187C36.396 127.843 33.2 142.971 33.42 158.203C33.484 162.467 33.976 166.655 34.38 170.891C34.38 171.007 34.204 171.051 34.18 170.935C33.376 167.299 33.116 163.491 32.964 159.787Z" fill="#0054A8"/>
<path d="M40.2881 113.164C40.2881 113.164 46.1841 128.132 44.8641 131.648C43.5441 135.164 40.8201 135.916 40.8201 135.916C40.8201 135.916 44.4201 141.068 41.9081 145.916C39.3961 150.764 33.7881 150.516 33.4121 155.996C33.4121 155.98 33.1001 133.076 40.2881 113.164Z" fill="#0054A8"/>
<path d="M34.056 146.526C34.0461 146.501 34.0461 146.472 34.056 146.446C34.8336 136.228 36.7536 126.129 39.78 116.338C39.78 116.31 39.836 116.318 39.828 116.338C38.66 120.714 37.628 125.114 36.732 129.538C37.5199 128.79 38.4825 128.251 39.532 127.97C39.532 127.97 39.56 127.97 39.532 127.998C38.4242 128.408 37.4291 129.074 36.628 129.942C36.4573 130.806 36.2907 131.674 36.128 132.546C37.444 131.074 39.272 130.342 41.1 129.646C41.124 129.646 41.14 129.678 41.1 129.686C39.196 130.462 37.296 131.462 36.008 133.102C35.5547 135.585 35.1547 138.077 34.808 140.578C35.7613 139.585 36.9829 138.89 38.324 138.578C38.364 138.578 38.388 138.63 38.324 138.642C36.9398 139.042 35.7016 139.836 34.76 140.926H34.736C34.6187 141.806 34.508 142.688 34.404 143.57C35.1638 142.943 36.022 142.446 36.944 142.098C36.968 142.098 36.98 142.126 36.944 142.134C36.0411 142.535 35.2142 143.088 34.5 143.77C34.5 143.77 34.5 143.77 34.468 143.77C34.372 144.606 34.272 145.446 34.188 146.286C35.5164 144.682 37.2396 143.451 39.188 142.714C39.1919 142.713 39.1961 142.712 39.2004 142.712C39.2046 142.712 39.2088 142.713 39.2127 142.715C39.2166 142.716 39.2201 142.719 39.2231 142.722C39.2261 142.725 39.2284 142.728 39.23 142.732C39.2316 142.736 39.2324 142.741 39.2323 142.745C39.2322 142.749 39.2314 142.753 39.2297 142.757C39.228 142.761 39.2256 142.765 39.2226 142.768C39.2195 142.771 39.2159 142.773 39.212 142.774C37.2874 143.622 35.5966 144.923 34.284 146.566C34.2705 146.586 34.2511 146.6 34.2287 146.607C34.2063 146.614 34.1822 146.614 34.16 146.606C34.032 147.894 33.916 149.186 33.824 150.478H33.792C33.856 149.17 33.948 147.846 34.056 146.526Z" fill="#040506"/>
<path d="M38.7922 126.502C39.8597 125.837 41.0799 125.457 42.3362 125.398C42.3642 125.398 42.3682 125.438 42.3362 125.442C41.1227 125.667 39.9444 126.052 38.8322 126.586C38.8218 126.589 38.8109 126.587 38.8014 126.582C38.7918 126.577 38.7842 126.57 38.7796 126.56C38.775 126.55 38.7737 126.539 38.776 126.529C38.7783 126.519 38.784 126.509 38.7922 126.502Z" fill="#040506"/>
<path d="M38.0761 142.345C38.8971 141.877 39.7998 141.569 40.7361 141.438C40.7681 141.438 40.7721 141.481 40.7361 141.485C39.8189 141.67 38.9317 141.981 38.1001 142.409C38.0721 142.425 38.0401 142.365 38.0761 142.345Z" fill="#040506"/>
<path d="M17.4642 131.895C19.9572 133.62 22.2465 135.622 24.2882 137.863C26.3993 140.232 28.0295 142.988 29.0882 145.979C31.3255 152.213 32.5294 158.77 32.6522 165.391C32.7289 169.058 32.3758 172.722 31.6002 176.307C31.5934 176.332 31.5775 176.354 31.5556 176.368C31.5337 176.382 31.5073 176.387 31.4818 176.382C31.4562 176.378 31.4332 176.364 31.4174 176.343C31.4016 176.323 31.394 176.297 31.3962 176.271C32.3623 169.944 32.33 163.504 31.3002 157.187C30.2842 150.995 28.6962 144.259 24.7602 139.227C22.5962 136.499 19.9242 134.335 17.3002 132.099C17.1442 131.987 17.3202 131.795 17.4642 131.895Z" fill="#0054A8"/>
<path d="M31.7721 160.934C30.354 158.638 28.6865 156.505 26.8001 154.574C23.8481 151.626 21.3641 149.53 20.9801 147.578C20.5961 145.626 23.9361 144.194 23.9361 144.194C23.9361 144.194 19.8521 144.926 18.7361 143.21C17.6201 141.494 17.0801 131.578 17.0801 131.578C17.0801 131.578 24.5001 136.898 27.9681 144.31C31.4361 151.722 31.7721 160.934 31.7721 160.934Z" fill="#0054A8"/>
<path d="M19.7321 140.896C20.2208 140.826 20.7158 140.81 21.2081 140.848C21.2681 140.848 21.2641 140.952 21.2081 140.952C20.7201 140.952 20.2321 140.928 19.7401 140.952C19.7001 140.944 19.7001 140.896 19.7321 140.896Z" fill="#040506"/>
<path d="M25.0759 150.5C25.8611 150.516 26.6371 150.672 27.3679 150.96C27.3679 150.96 27.3679 150.996 27.3679 150.992C26.6119 150.812 25.8479 150.736 25.0839 150.612C25.0079 150.612 25.0119 150.5 25.0759 150.5Z" fill="#040506"/>
<path d="M26.6798 147.18C27.0059 147.177 27.3315 147.207 27.6518 147.268C27.6838 147.268 27.6798 147.328 27.6518 147.328C27.327 147.344 27.0014 147.328 26.6798 147.28C26.6689 147.277 26.6594 147.27 26.6526 147.261C26.6458 147.252 26.6421 147.241 26.6421 147.23C26.6421 147.219 26.6458 147.208 26.6526 147.199C26.6594 147.19 26.6689 147.183 26.6798 147.18Z" fill="#040506"/>
<path d="M53.54 142.429C51.1247 143.248 48.8099 144.338 46.64 145.677C44.3931 147.113 42.4441 148.968 40.9 151.141C37.6485 155.67 35.1584 160.698 33.528 166.029C32.6207 168.98 32.0596 172.025 31.856 175.105C31.856 175.129 31.8652 175.151 31.8817 175.168C31.8982 175.184 31.9206 175.193 31.944 175.193C31.9673 175.193 31.9897 175.184 32.0062 175.168C32.0227 175.151 32.032 175.129 32.032 175.105C32.7079 169.769 34.2155 164.571 36.5 159.701C38.752 154.925 41.596 149.841 45.944 146.681C48.312 144.957 50.972 143.833 53.624 142.641C53.78 142.577 53.7 142.381 53.54 142.429Z" fill="#0054A8"/>
<path d="M35.252 162.618C36.9294 161.086 38.7713 159.745 40.744 158.618C43.816 156.914 46.308 155.79 47.072 154.302C47.836 152.814 45.472 150.878 45.472 150.878C45.472 150.878 48.604 152.414 49.904 151.278C51.204 150.142 53.932 142.242 53.932 142.242C53.932 142.242 46.7 144.818 42.18 150.034C37.66 155.25 35.252 162.618 35.252 162.618Z" fill="#0054A8"/>
<path d="M41.2559 155.357C41.9658 155.308 42.6786 155.395 43.3559 155.613C43.3559 155.613 43.3559 155.649 43.3559 155.645C42.6638 155.529 41.965 155.457 41.2639 155.429C41.2543 155.43 41.2447 155.428 41.2372 155.422C41.2297 155.416 41.2249 155.407 41.2239 155.397C41.2228 155.388 41.2256 155.378 41.2316 155.371C41.2376 155.363 41.2463 155.358 41.2559 155.357Z" fill="#040506"/>
<path d="M47.5678 147.072C47.8915 147.049 48.2169 147.068 48.5358 147.128C48.5419 147.13 48.5472 147.135 48.5509 147.14C48.5546 147.145 48.5566 147.152 48.5566 147.158C48.5566 147.165 48.5546 147.171 48.5509 147.176C48.5472 147.182 48.5419 147.186 48.5358 147.188C48.2198 147.152 47.9038 147.164 47.5838 147.156C47.5739 147.156 47.5645 147.152 47.5571 147.145C47.5497 147.139 47.5446 147.13 47.5428 147.121C47.5409 147.111 47.5424 147.101 47.5469 147.092C47.5515 147.083 47.5588 147.076 47.5678 147.072Z" fill="#040506"/>
<path d="M25.9199 185.08H42.2479L39.9199 168.02L39.3239 163.648H28.8439L28.2479 168.02L25.9199 185.08Z" fill="#00264D"/>
<path d="M28.248 168.02H39.92L39.324 163.648H28.844L28.248 168.02Z" fill="#040506"/>
<path d="M27.3402 165.828H40.8242V162.124H27.3402V165.828Z" fill="#00264D"/>
<path d="M112.9 24.8124C112.9 26.4585 112.442 28.0722 111.578 29.4735C110.714 30.8748 109.478 32.0085 108.008 32.7481C106.537 33.4878 104.89 33.8043 103.25 33.6624C101.61 33.5205 100.041 32.9257 98.7198 31.9444L94.3638 33.0564L96.1758 29.0044C95.538 27.8129 95.1804 26.4918 95.1299 25.1414C95.0795 23.791 95.3377 22.4468 95.8849 21.2112C96.4321 19.9755 97.2538 18.8809 98.2876 18.0106C99.3213 17.1403 100.54 16.5171 101.851 16.1886C103.162 15.86 104.53 15.8347 105.852 16.1145C107.174 16.3943 108.415 16.9719 109.48 17.8034C110.546 18.6348 111.407 19.6983 112 20.9128C112.592 22.1273 112.9 23.461 112.9 24.8124Z" fill="#E3E9ED"/>
<path d="M112.9 24.8068C112.9 26.455 112.446 28.0714 111.588 29.4789C111.379 29.8337 111.15 30.1756 110.9 30.5028C110.635 30.8162 110.35 31.1128 110.048 31.3909C109.451 31.9534 108.778 32.4288 108.048 32.8028C107.316 33.1766 106.535 33.4459 105.728 33.6028C105.323 33.6835 104.913 33.7343 104.5 33.7548C104.089 33.7889 103.675 33.7889 103.264 33.7548C101.6 33.6257 100.005 33.0372 98.6561 32.0548L98.7761 32.0788L94.4321 33.2229L94.0801 33.3148L94.2281 32.9788L96.0241 28.9188V29.0868C95.3708 27.8723 95.0057 26.5237 94.9572 25.1455C94.9086 23.7673 95.1779 22.3963 95.7441 21.1389C96.311 19.8849 97.1548 18.7758 98.2121 17.8949C99.2681 17.0269 100.507 16.4094 101.836 16.0887C103.164 15.7679 104.548 15.7523 105.884 16.0429C107.208 16.3439 108.447 16.9371 109.512 17.7789C110.571 18.6181 111.426 19.6865 112.013 20.9038C112.6 22.121 112.903 23.4555 112.9 24.8068ZM112.9 24.8068C112.899 22.7748 112.195 20.8056 110.908 19.2336C109.62 17.6616 107.828 16.5837 105.836 16.1829C104.525 15.9219 103.173 15.963 101.88 16.3029C100.592 16.6356 99.3971 17.2596 98.3881 18.1269C97.3882 19.0035 96.5911 20.0872 96.0521 21.3029C95.5205 22.515 95.2715 23.8323 95.3241 25.1549C95.3857 26.4643 95.7354 27.744 96.3481 28.9028L96.3921 28.9868L96.3521 29.0708L94.5241 33.1188L94.3201 32.8789L98.6841 31.7988H98.7521L98.8041 31.8388C100.098 32.8213 101.639 33.4238 103.256 33.5788C103.656 33.6082 104.057 33.6082 104.456 33.5788C105.678 33.5368 106.878 33.2326 107.972 32.6868C108.702 32.3314 109.376 31.8705 109.972 31.3188C110.274 31.0449 110.559 30.7523 110.824 30.4428C111.079 30.1246 111.315 29.7921 111.532 29.4468C112.405 28.055 112.879 26.4497 112.9 24.8068Z" fill="#040506"/>
<path d="M104.632 25.7744V26.7544C104.635 26.8523 104.617 26.9498 104.581 27.0408C104.545 27.1318 104.491 27.2145 104.421 27.2838C104.352 27.3531 104.269 27.4075 104.178 27.4437C104.087 27.4799 103.99 27.4972 103.892 27.4944C103.795 27.4944 103.699 27.4752 103.609 27.438C103.52 27.4007 103.438 27.3462 103.37 27.2774C103.302 27.2086 103.248 27.127 103.211 27.0373C103.174 26.9475 103.155 26.8514 103.156 26.7544V25.1904C103.156 25.1904 103.156 25.1904 103.156 25.1584C103.156 25.1264 103.156 25.1584 103.156 25.1304C103.161 24.9364 103.24 24.7517 103.377 24.6141C103.514 24.4765 103.698 24.3965 103.892 24.3904C104.12 24.4015 104.348 24.3662 104.563 24.2864C104.777 24.2067 104.973 24.0843 105.138 23.9267C105.304 23.769 105.436 23.5794 105.526 23.3693C105.616 23.1592 105.662 22.933 105.662 22.7044C105.662 22.4758 105.616 22.2496 105.526 22.0395C105.436 21.8294 105.304 21.6398 105.138 21.4821C104.973 21.3244 104.777 21.2021 104.563 21.1223C104.348 21.0426 104.12 21.0073 103.892 21.0184C103.6 21.0175 103.312 21.0935 103.059 21.2389C102.805 21.3842 102.595 21.5937 102.448 21.8464C102.399 21.9316 102.333 22.0063 102.255 22.0661C102.177 22.1259 102.088 22.1697 101.992 22.1949C101.897 22.2202 101.798 22.2265 101.701 22.2133C101.603 22.2002 101.509 22.1679 101.424 22.1184C101.34 22.069 101.268 22.0035 101.209 21.9258C101.151 21.8481 101.109 21.7597 101.085 21.6656C101.062 21.5716 101.057 21.4738 101.071 21.3778C101.085 21.2818 101.118 21.1896 101.168 21.1064C101.431 20.6533 101.803 20.2726 102.249 19.9986C102.696 19.7245 103.203 19.5656 103.726 19.5362C104.25 19.5068 104.772 19.6078 105.246 19.8301C105.721 20.0524 106.133 20.389 106.445 20.8098C106.757 21.2305 106.96 21.7222 107.035 22.2408C107.111 22.7593 107.056 23.2884 106.876 23.7806C106.696 24.2727 106.397 24.7126 106.006 25.0606C105.614 25.4086 105.142 25.6539 104.632 25.7744ZM104.632 29.0744V29.3464C104.634 29.444 104.616 29.541 104.58 29.6316C104.544 29.7221 104.489 29.8043 104.42 29.8732C104.351 29.942 104.268 29.9961 104.177 30.032C104.087 30.068 103.99 30.0851 103.892 30.0824C103.697 30.0824 103.51 30.0048 103.371 29.8668C103.233 29.7288 103.156 29.5416 103.156 29.3464V29.0744C103.158 28.8795 103.236 28.693 103.374 28.5548C103.511 28.4166 103.697 28.3375 103.892 28.3344C103.989 28.3333 104.086 28.3517 104.176 28.3885C104.267 28.4253 104.349 28.4798 104.418 28.5487C104.486 28.6177 104.541 28.6997 104.578 28.7899C104.615 28.8802 104.633 28.9769 104.632 29.0744Z" fill="#0054A8"/>
</svg>
